%
M48
M72
T01C0.0120
T02C0.0150
T03C0.0400
T04C0.1300
%
T01
X4375Y5375
X5875Y6875
X5875Y7375
X5875Y7875
X5375Y7375
X6625Y6675
X3875Y7875
X6375Y8875
X7375Y8875
X9175Y6675
X9575Y6625
X9875Y4875
X8875Y4875
X8475Y5075
X7725Y5075
X11375Y6875
X11375Y7375
X11875Y7875
X12225Y7675
X12375Y7075
X11875Y8375
X11375Y8875
X10875Y8875
X10375Y8875
X10375Y8375
X10375Y9375
X12875Y8875
X14375Y10875
X16075Y7875
X17575Y7375
X18075Y7375
X18075Y6875
X18825Y6675
X18075Y7875
X18575Y8875
X19575Y8875
X21375Y6675
X21775Y6625
X22075Y4875
X21075Y4875
X20675Y5075
X19925Y5075
X16575Y5375
X14269Y5906
X12375Y5375
X11875Y4375
X22575Y8375
X22575Y8875
X23075Y8875
X23575Y8875
X24075Y8375
X24075Y7875
X24425Y7675
X24575Y7075
X23575Y6875
X23575Y7375
X25075Y8875
X22575Y9375
X26575Y10875
X28275Y7875
X29775Y7375
X30275Y7375
X30275Y6875
X31025Y6675
X30275Y7875
X30775Y8875
X31775Y8875
X33575Y6675
X33975Y6625
X34275Y4875
X33275Y4875
X32875Y5075
X32125Y5075
X28775Y5375
X26469Y5906
X24575Y5375
X24075Y4375
X34775Y8375
X34775Y8875
X35275Y8875
X35775Y8875
X36275Y8375
X36275Y7875
X36625Y7675
X36775Y7075
X35775Y6875
X35775Y7375
X37275Y8875
X34775Y9375
X38775Y10875
X40475Y7875
X41975Y7375
X42475Y7375
X42475Y6875
X43225Y6675
X42475Y7875
X42975Y8875
X43975Y8875
X45775Y6675
X46175Y6625
X46475Y4875
X45475Y4875
X45075Y5075
X44325Y5075
X40975Y5375
X38669Y5906
X36775Y5375
X36275Y4375
X46975Y8375
X46975Y8875
X47475Y8875
X47975Y8875
X48475Y8375
X48475Y7875
X48825Y7675
X48975Y7075
X47975Y6875
X47975Y7375
X49475Y8875
X46975Y9375
X50975Y10875
X52675Y7875
X54175Y7375
X54675Y7375
X54675Y6875
X55425Y6675
X54675Y7875
X55175Y8875
X56175Y8875
X57975Y6675
X58375Y6625
X58675Y4875
X57675Y4875
X57275Y5075
X56525Y5075
X53175Y5375
X50869Y5906
X48975Y5375
X48475Y4375
X59175Y8375
X59175Y8875
X59675Y8875
X60175Y8875
X60675Y8375
X60675Y7875
X61025Y7675
X61175Y7075
X60175Y6875
X60175Y7375
X61675Y8875
X59175Y9375
X63175Y10875
X64875Y7875
X66375Y7375
X66875Y7375
X66875Y6875
X67625Y6675
X66875Y7875
X67375Y8875
X68375Y8875
X70175Y6675
X70575Y6625
X70875Y4875
X69875Y4875
X69475Y5075
X68725Y5075
X65375Y5375
X63069Y5906
X61175Y5375
X60675Y4375
X71375Y8375
X71375Y8875
X71875Y8875
X72375Y8875
X72875Y8375
X72875Y7875
X73225Y7675
X73375Y7075
X72375Y6875
X72375Y7375
X73875Y8875
X71375Y9375
X75375Y10875
X77075Y7875
X78575Y7375
X79075Y7375
X79075Y6875
X79825Y6675
X79075Y7875
X79575Y8875
X80575Y8875
X82375Y6675
X82775Y6625
X83075Y4875
X82075Y4875
X81675Y5075
X80925Y5075
X77575Y5375
X75269Y5906
X73375Y5375
X72875Y4375
X83575Y8375
X83575Y8875
X84075Y8875
X84575Y8875
X85075Y8375
X85075Y7875
X85425Y7675
X85575Y7075
X84575Y6875
X84575Y7375
X86075Y8875
X83575Y9375
X87575Y10875
X89275Y7875
X90775Y7375
X91275Y7375
X91275Y6875
X92025Y6675
X91275Y7875
X91775Y8875
X92775Y8875
X94575Y6675
X94975Y6625
X95275Y4875
X94275Y4875
X93875Y5075
X93125Y5075
X89775Y5375
X87469Y5906
X85575Y5375
X85075Y4375
X95775Y8375
X95775Y8875
X96275Y8875
X96775Y8875
X97275Y8375
X97275Y7875
X97625Y7675
X97775Y7075
X96775Y6875
X96775Y7375
X98275Y8875
X95775Y9375
X99775Y10875
X97275Y14575
X97775Y15575
X99669Y16106
X97775Y17275
X97625Y17875
X97275Y18075
X97275Y18575
X96775Y19075
X96275Y19075
X95775Y19075
X95775Y18575
X96775Y17575
X96775Y17075
X94975Y16825
X94575Y16875
X93875Y15275
X94275Y15075
X95275Y15075
X93125Y15275
X92025Y16875
X91275Y17075
X91275Y17575
X91275Y18075
X90775Y17575
X89275Y18075
X91775Y19075
X92775Y19075
X95775Y19575
X98275Y19075
X99775Y21075
X97275Y24775
X97775Y25775
X99669Y26306
X97775Y27475
X97625Y28075
X97275Y28275
X97275Y28775
X96775Y29275
X96275Y29275
X95775Y29275
X95775Y28775
X95775Y29775
X98275Y29275
X96775Y27775
X96775Y27275
X94975Y27025
X94575Y27075
X93875Y25475
X94275Y25275
X95275Y25275
X93125Y25475
X92025Y27075
X91275Y27275
X91275Y27775
X91275Y28275
X90775Y27775
X89275Y28275
X91775Y29275
X92775Y29275
X87575Y31275
X86075Y29275
X85075Y28775
X85075Y28275
X85425Y28075
X85575Y27475
X84575Y27275
X84575Y27775
X83575Y28775
X83575Y29275
X84075Y29275
X84575Y29275
X83575Y29775
X80575Y29275
X79575Y29275
X79075Y28275
X79075Y27775
X79075Y27275
X78575Y27775
X79825Y27075
X80925Y25475
X81675Y25475
X82075Y25275
X83075Y25275
X85075Y24775
X85575Y25775
X87469Y26306
X89775Y25775
X82775Y27025
X82375Y27075
X77575Y25775
X75269Y26306
X73375Y25775
X72875Y24775
X70875Y25275
X69875Y25275
X69475Y25475
X68725Y25475
X67625Y27075
X66875Y27275
X66875Y27775
X66875Y28275
X66375Y27775
X64875Y28275
X67375Y29275
X68375Y29275
X71375Y29275
X71875Y29275
X72375Y29275
X72875Y28775
X72875Y28275
X73225Y28075
X73375Y27475
X72375Y27275
X72375Y27775
X71375Y28775
X71375Y29775
X73875Y29275
X75375Y31275
X77075Y28275
X70575Y27025
X70175Y27075
X65375Y25775
X63069Y26306
X61175Y25775
X60675Y24775
X58675Y25275
X57675Y25275
X57275Y25475
X56525Y25475
X55425Y27075
X54675Y27275
X54675Y27775
X54675Y28275
X54175Y27775
X52675Y28275
X55175Y29275
X56175Y29275
X59175Y29275
X59675Y29275
X60175Y29275
X60675Y28775
X60675Y28275
X61025Y28075
X61175Y27475
X60175Y27275
X60175Y27775
X59175Y28775
X59175Y29775
X61675Y29275
X63175Y31275
X60675Y34975
X61175Y35975
X63069Y36506
X61175Y37675
X61025Y38275
X60675Y38475
X60675Y38975
X60175Y39475
X59675Y39475
X59175Y39475
X59175Y38975
X59175Y39975
X61675Y39475
X60175Y37975
X60175Y37475
X58375Y37225
X57975Y37275
X57275Y35675
X57675Y35475
X58675Y35475
X56525Y35675
X55425Y37275
X54675Y37475
X54675Y37975
X54675Y38475
X54175Y37975
X52675Y38475
X55175Y39475
X56175Y39475
X50975Y41475
X49475Y39475
X48475Y38975
X48475Y38475
X48825Y38275
X48975Y37675
X47975Y37475
X47975Y37975
X46975Y38975
X46975Y39475
X47475Y39475
X47975Y39475
X46975Y39975
X43975Y39475
X42975Y39475
X42475Y38475
X42475Y37975
X42475Y37475
X41975Y37975
X43225Y37275
X44325Y35675
X45075Y35675
X45475Y35475
X46475Y35475
X48475Y34975
X48975Y35975
X50869Y36506
X53175Y35975
X46175Y37225
X45775Y37275
X40975Y35975
X38669Y36506
X36775Y35975
X36275Y34975
X34275Y35475
X33275Y35475
X32875Y35675
X32125Y35675
X31025Y37275
X30275Y37475
X30275Y37975
X30275Y38475
X29775Y37975
X28275Y38475
X30775Y39475
X31775Y39475
X34775Y39475
X35275Y39475
X35775Y39475
X36275Y38975
X36275Y38475
X36625Y38275
X36775Y37675
X35775Y37475
X35775Y37975
X34775Y38975
X34775Y39975
X37275Y39475
X38775Y41475
X40475Y38475
X33975Y37225
X33575Y37275
X28775Y35975
X26469Y36506
X24575Y35975
X24075Y34975
X22075Y35475
X21075Y35475
X20675Y35675
X19925Y35675
X18825Y37275
X18075Y37475
X18075Y37975
X18075Y38475
X17575Y37975
X16075Y38475
X18575Y39475
X19575Y39475
X22575Y39475
X23075Y39475
X23575Y39475
X24075Y38975
X24075Y38475
X24425Y38275
X24575Y37675
X23575Y37475
X23575Y37975
X22575Y38975
X22575Y39975
X25075Y39475
X26575Y41475
X24075Y45175
X24575Y46175
X26469Y46706
X24575Y47875
X24425Y48475
X24075Y48675
X24075Y49175
X23575Y49675
X23075Y49675
X22575Y49675
X22575Y50175
X22575Y49175
X23575Y48175
X23575Y47675
X21775Y47425
X21375Y47475
X20675Y45875
X21075Y45675
X22075Y45675
X19925Y45875
X18825Y47475
X18075Y47675
X18075Y48175
X18075Y48675
X17575Y48175
X16075Y48675
X18575Y49675
X19575Y49675
X25075Y49675
X26575Y51675
X30775Y49675
X31775Y49675
X30275Y48675
X30275Y48175
X30275Y47675
X29775Y48175
X31025Y47475
X28775Y46175
X32125Y45875
X32875Y45875
X33275Y45675
X34275Y45675
X36275Y45175
X36775Y46175
X38669Y46706
X36775Y47875
X36625Y48475
X36275Y48675
X36275Y49175
X35775Y49675
X35275Y49675
X34775Y49675
X34775Y50175
X34775Y49175
X35775Y48175
X35775Y47675
X33975Y47425
X33575Y47475
X37275Y49675
X38775Y51675
X42975Y49675
X43975Y49675
X42475Y48675
X42475Y48175
X42475Y47675
X41975Y48175
X43225Y47475
X40975Y46175
X44325Y45875
X45075Y45875
X45475Y45675
X46475Y45675
X48475Y45175
X48975Y46175
X50869Y46706
X48975Y47875
X48825Y48475
X48475Y48675
X48475Y49175
X47975Y49675
X47475Y49675
X46975Y49675
X46975Y50175
X46975Y49175
X47975Y48175
X47975Y47675
X46175Y47425
X45775Y47475
X49475Y49675
X50975Y51675
X55175Y49675
X56175Y49675
X54675Y48675
X54675Y48175
X54675Y47675
X54175Y48175
X55425Y47475
X53175Y46175
X56525Y45875
X57275Y45875
X57675Y45675
X58675Y45675
X60675Y45175
X61175Y46175
X63069Y46706
X61175Y47875
X61025Y48475
X60675Y48675
X60675Y49175
X60175Y49675
X59675Y49675
X59175Y49675
X59175Y50175
X59175Y49175
X60175Y48175
X60175Y47675
X58375Y47425
X57975Y47475
X61675Y49675
X63175Y51675
X67375Y49675
X68375Y49675
X66875Y48675
X66875Y48175
X66875Y47675
X66375Y48175
X67625Y47475
X65375Y46175
X68725Y45875
X69475Y45875
X69875Y45675
X70875Y45675
X72875Y45175
X73375Y46175
X75269Y46706
X73375Y47875
X73225Y48475
X72875Y48675
X72875Y49175
X72375Y49675
X71875Y49675
X71375Y49675
X71375Y50175
X71375Y49175
X72375Y48175
X72375Y47675
X70575Y47425
X70175Y47475
X73875Y49675
X75375Y51675
X79575Y49675
X80575Y49675
X79075Y48675
X79075Y48175
X79075Y47675
X78575Y48175
X79825Y47475
X77575Y46175
X80925Y45875
X81675Y45875
X82075Y45675
X83075Y45675
X85075Y45175
X85575Y46175
X87469Y46706
X85575Y47875
X85425Y48475
X85075Y48675
X85075Y49175
X84575Y49675
X84075Y49675
X83575Y49675
X83575Y50175
X83575Y49175
X84575Y48175
X84575Y47675
X82775Y47425
X82375Y47475
X86075Y49675
X87575Y51675
X91775Y49675
X92775Y49675
X91275Y48675
X91275Y48175
X91275Y47675
X90775Y48175
X92025Y47475
X89775Y46175
X93125Y45875
X93875Y45875
X94275Y45675
X95275Y45675
X97275Y45175
X97775Y46175
X99669Y46706
X97775Y47875
X97625Y48475
X97275Y48675
X97275Y49175
X96775Y49675
X96275Y49675
X95775Y49675
X95775Y50175
X95775Y49175
X96775Y48175
X96775Y47675
X94975Y47425
X94575Y47475
X98275Y49675
X99775Y51675
X89275Y48675
X77075Y48675
X64875Y48675
X52675Y48675
X40475Y48675
X28275Y48675
X16575Y46175
X14269Y46706
X12375Y46175
X11875Y45175
X9875Y45675
X8875Y45675
X8475Y45875
X7725Y45875
X6625Y47475
X5875Y47675
X5875Y48175
X5875Y48675
X5375Y48175
X3875Y48675
X6375Y49675
X7375Y49675
X10375Y49675
X10375Y50175
X10875Y49675
X11375Y49675
X11875Y49175
X11875Y48675
X12225Y48475
X12375Y47875
X11375Y47675
X11375Y48175
X10375Y49175
X12875Y49675
X14375Y51675
X9575Y47425
X9175Y47475
X4375Y46175
X14375Y41475
X12875Y39475
X11875Y38975
X11875Y38475
X12225Y38275
X12375Y37675
X11375Y37475
X11375Y37975
X10375Y38975
X10375Y39475
X10875Y39475
X11375Y39475
X10375Y39975
X7375Y39475
X6375Y39475
X5875Y38475
X5875Y37975
X5875Y37475
X5375Y37975
X6625Y37275
X7725Y35675
X8475Y35675
X8875Y35475
X9875Y35475
X11875Y34975
X12375Y35975
X14269Y36506
X16575Y35975
X21375Y37275
X21775Y37225
X26575Y31275
X25075Y29275
X24075Y28775
X24075Y28275
X24425Y28075
X24575Y27475
X23575Y27275
X23575Y27775
X22575Y28775
X22575Y29275
X23075Y29275
X23575Y29275
X22575Y29775
X19575Y29275
X18575Y29275
X18075Y28275
X18075Y27775
X18075Y27275
X17575Y27775
X18825Y27075
X19925Y25475
X20675Y25475
X21075Y25275
X22075Y25275
X24075Y24775
X24575Y25775
X26469Y26306
X28775Y25775
X31025Y27075
X30275Y27275
X30275Y27775
X30275Y28275
X29775Y27775
X28275Y28275
X30775Y29275
X31775Y29275
X34775Y29275
X35275Y29275
X35775Y29275
X36275Y28775
X36275Y28275
X36625Y28075
X36775Y27475
X35775Y27275
X35775Y27775
X34775Y28775
X34775Y29775
X37275Y29275
X38775Y31275
X42975Y29275
X43975Y29275
X42475Y28275
X42475Y27775
X42475Y27275
X41975Y27775
X43225Y27075
X44325Y25475
X45075Y25475
X45475Y25275
X46475Y25275
X48475Y24775
X48975Y25775
X50869Y26306
X48975Y27475
X48825Y28075
X48475Y28275
X48475Y28775
X47975Y29275
X47475Y29275
X46975Y29275
X46975Y28775
X46975Y29775
X49475Y29275
X47975Y27775
X47975Y27275
X46175Y27025
X45775Y27075
X40975Y25775
X38669Y26306
X36775Y25775
X36275Y24775
X34275Y25275
X33275Y25275
X32875Y25475
X32125Y25475
X33575Y27075
X33975Y27025
X40475Y28275
X50975Y31275
X57975Y27075
X58375Y27025
X53175Y25775
X50975Y21075
X49475Y19075
X48475Y18575
X48475Y18075
X48825Y17875
X48975Y17275
X47975Y17075
X47975Y17575
X46975Y18575
X46975Y19075
X47475Y19075
X47975Y19075
X46975Y19575
X43975Y19075
X42975Y19075
X42475Y18075
X42475Y17575
X42475Y17075
X41975Y17575
X40475Y18075
X43225Y16875
X44325Y15275
X45075Y15275
X45475Y15075
X46475Y15075
X48475Y14575
X48975Y15575
X50869Y16106
X53175Y15575
X55425Y16875
X54675Y17075
X54675Y17575
X54675Y18075
X54175Y17575
X52675Y18075
X55175Y19075
X56175Y19075
X59175Y19075
X59675Y19075
X60175Y19075
X60675Y18575
X60675Y18075
X61025Y17875
X61175Y17275
X60175Y17075
X60175Y17575
X59175Y18575
X59175Y19575
X61675Y19075
X63175Y21075
X67375Y19075
X68375Y19075
X66875Y18075
X66875Y17575
X66875Y17075
X66375Y17575
X64875Y18075
X67625Y16875
X68725Y15275
X69475Y15275
X69875Y15075
X70875Y15075
X72875Y14575
X73375Y15575
X75269Y16106
X73375Y17275
X73225Y17875
X72875Y18075
X72875Y18575
X72375Y19075
X71875Y19075
X71375Y19075
X71375Y18575
X72375Y17575
X72375Y17075
X70575Y16825
X70175Y16875
X73875Y19075
X71375Y19575
X75375Y21075
X79575Y19075
X80575Y19075
X79075Y18075
X79075Y17575
X79075Y17075
X78575Y17575
X77075Y18075
X79825Y16875
X80925Y15275
X81675Y15275
X82075Y15075
X83075Y15075
X85075Y14575
X85575Y15575
X87469Y16106
X85575Y17275
X85425Y17875
X85075Y18075
X85075Y18575
X84575Y19075
X84075Y19075
X83575Y19075
X83575Y18575
X84575Y17575
X84575Y17075
X82775Y16825
X82375Y16875
X86075Y19075
X83575Y19575
X87575Y21075
X89775Y15575
X77575Y15575
X65375Y15575
X63069Y16106
X61175Y15575
X60675Y14575
X58675Y15075
X57675Y15075
X57275Y15275
X56525Y15275
X57975Y16875
X58375Y16825
X46175Y16825
X45775Y16875
X40975Y15575
X38669Y16106
X36775Y15575
X36275Y14575
X34275Y15075
X33275Y15075
X32875Y15275
X32125Y15275
X31025Y16875
X30275Y17075
X30275Y17575
X30275Y18075
X29775Y17575
X28275Y18075
X30775Y19075
X31775Y19075
X34775Y19075
X35275Y19075
X35775Y19075
X36275Y18575
X36275Y18075
X36625Y17875
X36775Y17275
X35775Y17075
X35775Y17575
X34775Y18575
X34775Y19575
X37275Y19075
X38775Y21075
X33975Y16825
X33575Y16875
X28775Y15575
X26469Y16106
X24575Y15575
X24075Y14575
X22075Y15075
X21075Y15075
X20675Y15275
X19925Y15275
X18825Y16875
X18075Y17075
X18075Y17575
X18075Y18075
X17575Y17575
X16075Y18075
X18575Y19075
X19575Y19075
X22575Y19075
X23075Y19075
X23575Y19075
X24075Y18575
X24075Y18075
X24425Y17875
X24575Y17275
X23575Y17075
X23575Y17575
X22575Y18575
X22575Y19575
X25075Y19075
X26575Y21075
X21775Y16825
X21375Y16875
X16575Y15575
X14269Y16106
X12375Y15575
X11875Y14575
X9875Y15075
X8875Y15075
X8475Y15275
X7725Y15275
X6625Y16875
X5875Y17075
X5875Y17575
X5875Y18075
X5375Y17575
X3875Y18075
X6375Y19075
X7375Y19075
X10375Y19075
X10875Y19075
X11375Y19075
X11875Y18575
X11875Y18075
X12225Y17875
X12375Y17275
X11375Y17075
X11375Y17575
X10375Y18575
X10375Y19575
X12875Y19075
X14375Y21075
X11875Y24775
X12375Y25775
X14269Y26306
X12375Y27475
X12225Y28075
X11875Y28275
X11875Y28775
X11375Y29275
X10875Y29275
X10375Y29275
X10375Y28775
X10375Y29775
X12875Y29275
X11375Y27775
X11375Y27275
X9575Y27025
X9175Y27075
X8475Y25475
X8875Y25275
X9875Y25275
X7725Y25475
X6625Y27075
X5875Y27275
X5875Y27775
X5875Y28275
X5375Y27775
X3875Y28275
X6375Y29275
X7375Y29275
X4375Y25775
X14375Y31275
X16075Y28275
X16575Y25775
X21375Y27075
X21775Y27025
X4375Y35975
X3875Y38475
X9175Y37275
X9575Y37225
X9175Y16875
X9575Y16825
X4375Y15575
X63175Y41475
X67375Y39475
X68375Y39475
X66875Y38475
X66875Y37975
X66875Y37475
X66375Y37975
X67625Y37275
X68725Y35675
X69475Y35675
X69875Y35475
X70875Y35475
X72875Y34975
X73375Y35975
X75269Y36506
X73375Y37675
X73225Y38275
X72875Y38475
X72875Y38975
X72375Y39475
X71875Y39475
X71375Y39475
X71375Y38975
X71375Y39975
X73875Y39475
X72375Y37975
X72375Y37475
X70575Y37225
X70175Y37275
X65375Y35975
X64875Y38475
X75375Y41475
X79575Y39475
X80575Y39475
X79075Y38475
X79075Y37975
X79075Y37475
X78575Y37975
X79825Y37275
X80925Y35675
X81675Y35675
X82075Y35475
X83075Y35475
X85075Y34975
X85575Y35975
X87469Y36506
X85575Y37675
X85425Y38275
X85075Y38475
X85075Y38975
X84575Y39475
X84075Y39475
X83575Y39475
X83575Y38975
X83575Y39975
X86075Y39475
X84575Y37975
X84575Y37475
X82775Y37225
X82375Y37275
X77575Y35975
X77075Y38475
X87575Y41475
X91775Y39475
X92775Y39475
X91275Y38475
X91275Y37975
X91275Y37475
X90775Y37975
X92025Y37275
X93125Y35675
X93875Y35675
X94275Y35475
X95275Y35475
X97275Y34975
X97775Y35975
X99669Y36506
X97775Y37675
X97625Y38275
X97275Y38475
X97275Y38975
X96775Y39475
X96275Y39475
X95775Y39475
X95775Y38975
X95775Y39975
X98275Y39475
X96775Y37975
X96775Y37475
X94975Y37225
X94575Y37275
X89775Y35975
X89275Y38475
X99775Y41475
X99775Y31275
X99669Y5906
X97775Y5375
X97275Y4375
T02
X94125Y6675
X93775Y7625
X92775Y9375
X81925Y6675
X81575Y7625
X80575Y9375
X69725Y6675
X69375Y7625
X68375Y9375
X57525Y6675
X57175Y7625
X56175Y9375
X45325Y6675
X44975Y7625
X43975Y9375
X33125Y6675
X32775Y7625
X31775Y9375
X20925Y6675
X20575Y7625
X19575Y9375
X8725Y6675
X8375Y7625
X7375Y9375
X8725Y16875
X8375Y17825
X7375Y19575
X19575Y19575
X20575Y17825
X20925Y16875
X31775Y19575
X32775Y17825
X33125Y16875
X43975Y19575
X44975Y17825
X45325Y16875
X56175Y19575
X57175Y17825
X57525Y16875
X68375Y19575
X69375Y17825
X69725Y16875
X80575Y19575
X81575Y17825
X81925Y16875
X92775Y19575
X93775Y17825
X94125Y16875
X94125Y27075
X93775Y28025
X92775Y29775
X81925Y27075
X81575Y28025
X80575Y29775
X69725Y27075
X69375Y28025
X68375Y29775
X57525Y27075
X57175Y28025
X56175Y29775
X45325Y27075
X44975Y28025
X43975Y29775
X33125Y27075
X32775Y28025
X31775Y29775
X20925Y27075
X20575Y28025
X19575Y29775
X8725Y27075
X8375Y28025
X7375Y29775
X8725Y37275
X8375Y38225
X7375Y39975
X19575Y39975
X20575Y38225
X20925Y37275
X31775Y39975
X32775Y38225
X33125Y37275
X43975Y39975
X44975Y38225
X45325Y37275
X56175Y39975
X57175Y38225
X57525Y37275
X68375Y39975
X69375Y38225
X69725Y37275
X80575Y39975
X81575Y38225
X81925Y37275
X92775Y39975
X93775Y38225
X94125Y37275
X94125Y47475
X93775Y48425
X92775Y50175
X81925Y47475
X81575Y48425
X80575Y50175
X69725Y47475
X69375Y48425
X68375Y50175
X57525Y47475
X57175Y48425
X56175Y50175
X45325Y47475
X44975Y48425
X43975Y50175
X33125Y47475
X32775Y48425
X31775Y50175
X20925Y47475
X20575Y48425
X19575Y50175
X8725Y47475
X8375Y48425
X7375Y50175
T03
X5375Y3375
X6375Y3375
X7375Y3375
X8375Y3375
X9375Y3375
X10375Y3375
X11375Y3375
X12375Y3375
X15575Y5875
X17575Y3375
X18575Y3375
X19575Y3375
X20575Y3375
X21575Y3375
X22575Y3375
X23575Y3375
X24575Y3375
X27775Y5875
X29775Y3375
X30775Y3375
X31775Y3375
X32775Y3375
X33775Y3375
X34775Y3375
X35775Y3375
X36775Y3375
X39975Y5875
X41975Y3375
X42975Y3375
X43975Y3375
X44975Y3375
X45975Y3375
X46975Y3375
X47975Y3375
X48975Y3375
X52175Y5875
X54175Y3375
X55175Y3375
X56175Y3375
X57175Y3375
X58175Y3375
X59175Y3375
X60175Y3375
X61175Y3375
X64375Y5875
X66375Y3375
X67375Y3375
X68375Y3375
X69375Y3375
X70375Y3375
X71375Y3375
X72375Y3375
X73375Y3375
X76575Y5875
X78575Y3375
X79575Y3375
X80575Y3375
X81575Y3375
X82575Y3375
X83575Y3375
X84575Y3375
X85575Y3375
X88775Y5875
X90775Y3375
X91775Y3375
X92775Y3375
X93775Y3375
X94775Y3375
X95775Y3375
X96775Y3375
X97775Y3375
X96775Y10375
X95775Y10375
X94775Y10375
X93775Y10375
X92775Y10375
X91775Y10375
X91775Y12375
X90775Y12375
X90775Y13575
X91775Y13575
X92775Y13575
X93775Y13575
X94775Y13575
X95775Y13575
X96775Y13575
X97775Y13575
X97775Y12375
X96775Y12375
X95775Y12375
X94775Y12375
X93775Y12375
X92775Y12375
X88775Y16075
X85575Y13575
X84575Y13575
X83575Y13575
X82575Y13575
X81575Y13575
X80575Y13575
X79575Y13575
X78575Y13575
X78575Y12375
X79575Y12375
X80575Y12375
X81575Y12375
X82575Y12375
X83575Y12375
X84575Y12375
X85575Y12375
X84575Y10375
X83575Y10375
X82575Y10375
X81575Y10375
X80575Y10375
X79575Y10375
X73375Y12375
X72375Y12375
X71375Y12375
X70375Y12375
X69375Y12375
X68375Y12375
X67375Y12375
X66375Y12375
X66375Y13575
X67375Y13575
X68375Y13575
X69375Y13575
X70375Y13575
X71375Y13575
X72375Y13575
X73375Y13575
X76575Y16075
X79575Y20575
X80575Y20575
X81575Y20575
X82575Y20575
X83575Y20575
X84575Y20575
X84575Y22575
X83575Y22575
X82575Y22575
X81575Y22575
X80575Y22575
X79575Y22575
X78575Y22575
X78575Y23775
X79575Y23775
X80575Y23775
X81575Y23775
X82575Y23775
X83575Y23775
X84575Y23775
X85575Y23775
X85575Y22575
X90775Y22575
X91775Y22575
X92775Y22575
X93775Y22575
X94775Y22575
X95775Y22575
X96775Y22575
X97775Y22575
X97775Y23775
X96775Y23775
X95775Y23775
X94775Y23775
X93775Y23775
X92775Y23775
X91775Y23775
X90775Y23775
X88775Y26275
X91775Y30775
X92775Y30775
X93775Y30775
X94775Y30775
X95775Y30775
X96775Y30775
X96775Y32775
X95775Y32775
X94775Y32775
X93775Y32775
X92775Y32775
X91775Y32775
X90775Y32775
X90775Y33975
X91775Y33975
X92775Y33975
X93775Y33975
X94775Y33975
X95775Y33975
X96775Y33975
X97775Y33975
X97775Y32775
X88775Y36475
X85575Y33975
X84575Y33975
X83575Y33975
X82575Y33975
X81575Y33975
X80575Y33975
X79575Y33975
X78575Y33975
X78575Y32775
X79575Y32775
X80575Y32775
X81575Y32775
X82575Y32775
X83575Y32775
X84575Y32775
X85575Y32775
X84575Y30775
X83575Y30775
X82575Y30775
X81575Y30775
X80575Y30775
X79575Y30775
X73375Y32775
X72375Y32775
X71375Y32775
X70375Y32775
X69375Y32775
X68375Y32775
X67375Y32775
X66375Y32775
X66375Y33975
X67375Y33975
X68375Y33975
X69375Y33975
X70375Y33975
X71375Y33975
X72375Y33975
X73375Y33975
X76575Y36475
X79575Y40975
X80575Y40975
X81575Y40975
X82575Y40975
X83575Y40975
X84575Y40975
X84575Y42975
X83575Y42975
X82575Y42975
X81575Y42975
X80575Y42975
X79575Y42975
X78575Y42975
X78575Y44175
X79575Y44175
X80575Y44175
X81575Y44175
X82575Y44175
X83575Y44175
X84575Y44175
X85575Y44175
X85575Y42975
X90775Y42975
X91775Y42975
X92775Y42975
X93775Y42975
X94775Y42975
X95775Y42975
X96775Y42975
X97775Y42975
X97775Y44175
X96775Y44175
X95775Y44175
X94775Y44175
X93775Y44175
X92775Y44175
X91775Y44175
X90775Y44175
X88775Y46675
X91775Y51175
X92775Y51175
X93775Y51175
X94775Y51175
X95775Y51175
X96775Y51175
X96775Y53175
X95775Y53175
X94775Y53175
X93775Y53175
X92775Y53175
X91775Y53175
X90775Y53175
X85575Y53175
X84575Y53175
X83575Y53175
X82575Y53175
X81575Y53175
X80575Y53175
X79575Y53175
X78575Y53175
X79575Y51175
X80575Y51175
X81575Y51175
X82575Y51175
X83575Y51175
X84575Y51175
X76575Y46675
X73375Y44175
X72375Y44175
X71375Y44175
X70375Y44175
X69375Y44175
X68375Y44175
X67375Y44175
X66375Y44175
X66375Y42975
X67375Y42975
X68375Y42975
X69375Y42975
X70375Y42975
X71375Y42975
X72375Y42975
X73375Y42975
X72375Y40975
X71375Y40975
X70375Y40975
X69375Y40975
X68375Y40975
X67375Y40975
X61175Y42975
X60175Y42975
X59175Y42975
X58175Y42975
X57175Y42975
X56175Y42975
X55175Y42975
X54175Y42975
X54175Y44175
X55175Y44175
X56175Y44175
X57175Y44175
X58175Y44175
X59175Y44175
X60175Y44175
X61175Y44175
X64375Y46675
X67375Y51175
X68375Y51175
X69375Y51175
X70375Y51175
X71375Y51175
X72375Y51175
X72375Y53175
X71375Y53175
X70375Y53175
X69375Y53175
X68375Y53175
X67375Y53175
X66375Y53175
X61175Y53175
X60175Y53175
X59175Y53175
X58175Y53175
X57175Y53175
X56175Y53175
X55175Y53175
X54175Y53175
X55175Y51175
X56175Y51175
X57175Y51175
X58175Y51175
X59175Y51175
X60175Y51175
X52175Y46675
X48975Y44175
X47975Y44175
X46975Y44175
X45975Y44175
X44975Y44175
X43975Y44175
X42975Y44175
X41975Y44175
X41975Y42975
X42975Y42975
X43975Y42975
X44975Y42975
X45975Y42975
X46975Y42975
X47975Y42975
X48975Y42975
X47975Y40975
X46975Y40975
X45975Y40975
X44975Y40975
X43975Y40975
X42975Y40975
X36775Y42975
X35775Y42975
X34775Y42975
X33775Y42975
X32775Y42975
X31775Y42975
X30775Y42975
X29775Y42975
X29775Y44175
X30775Y44175
X31775Y44175
X32775Y44175
X33775Y44175
X34775Y44175
X35775Y44175
X36775Y44175
X39975Y46675
X42975Y51175
X43975Y51175
X44975Y51175
X45975Y51175
X46975Y51175
X47975Y51175
X47975Y53175
X46975Y53175
X45975Y53175
X44975Y53175
X43975Y53175
X42975Y53175
X41975Y53175
X36775Y53175
X35775Y53175
X34775Y53175
X33775Y53175
X32775Y53175
X31775Y53175
X30775Y53175
X29775Y53175
X30775Y51175
X31775Y51175
X32775Y51175
X33775Y51175
X34775Y51175
X35775Y51175
X27775Y46675
X24575Y44175
X23575Y44175
X22575Y44175
X21575Y44175
X20575Y44175
X19575Y44175
X18575Y44175
X17575Y44175
X17575Y42975
X18575Y42975
X19575Y42975
X20575Y42975
X21575Y42975
X22575Y42975
X23575Y42975
X24575Y42975
X23575Y40975
X22575Y40975
X21575Y40975
X20575Y40975
X19575Y40975
X18575Y40975
X12375Y42975
X11375Y42975
X10375Y42975
X9375Y42975
X8375Y42975
X7375Y42975
X6375Y42975
X5375Y42975
X5375Y44175
X6375Y44175
X7375Y44175
X8375Y44175
X9375Y44175
X10375Y44175
X11375Y44175
X12375Y44175
X15575Y46675
X18575Y51175
X19575Y51175
X20575Y51175
X21575Y51175
X22575Y51175
X23575Y51175
X23575Y53175
X22575Y53175
X21575Y53175
X20575Y53175
X19575Y53175
X18575Y53175
X17575Y53175
X12375Y53175
X11375Y53175
X10375Y53175
X9375Y53175
X8375Y53175
X7375Y53175
X6375Y53175
X5375Y53175
X6375Y51175
X7375Y51175
X8375Y51175
X9375Y51175
X10375Y51175
X11375Y51175
X3375Y46675
X6375Y40975
X7375Y40975
X8375Y40975
X9375Y40975
X10375Y40975
X11375Y40975
X15575Y36475
X17575Y33975
X18575Y33975
X19575Y33975
X20575Y33975
X21575Y33975
X22575Y33975
X23575Y33975
X24575Y33975
X24575Y32775
X23575Y32775
X22575Y32775
X21575Y32775
X20575Y32775
X19575Y32775
X18575Y32775
X17575Y32775
X18575Y30775
X19575Y30775
X20575Y30775
X21575Y30775
X22575Y30775
X23575Y30775
X29775Y32775
X30775Y32775
X31775Y32775
X32775Y32775
X33775Y32775
X34775Y32775
X35775Y32775
X36775Y32775
X36775Y33975
X35775Y33975
X34775Y33975
X33775Y33975
X32775Y33975
X31775Y33975
X30775Y33975
X29775Y33975
X27775Y36475
X30775Y40975
X31775Y40975
X32775Y40975
X33775Y40975
X34775Y40975
X35775Y40975
X39975Y36475
X41975Y33975
X42975Y33975
X43975Y33975
X44975Y33975
X45975Y33975
X46975Y33975
X47975Y33975
X48975Y33975
X48975Y32775
X47975Y32775
X46975Y32775
X45975Y32775
X44975Y32775
X43975Y32775
X42975Y32775
X41975Y32775
X42975Y30775
X43975Y30775
X44975Y30775
X45975Y30775
X46975Y30775
X47975Y30775
X54175Y32775
X55175Y32775
X56175Y32775
X57175Y32775
X58175Y32775
X59175Y32775
X60175Y32775
X61175Y32775
X61175Y33975
X60175Y33975
X59175Y33975
X58175Y33975
X57175Y33975
X56175Y33975
X55175Y33975
X54175Y33975
X52175Y36475
X55175Y40975
X56175Y40975
X57175Y40975
X58175Y40975
X59175Y40975
X60175Y40975
X64375Y36475
X67375Y30775
X68375Y30775
X69375Y30775
X70375Y30775
X71375Y30775
X72375Y30775
X76575Y26275
X73375Y23775
X72375Y23775
X71375Y23775
X70375Y23775
X69375Y23775
X68375Y23775
X67375Y23775
X66375Y23775
X66375Y22575
X67375Y22575
X68375Y22575
X69375Y22575
X70375Y22575
X71375Y22575
X72375Y22575
X73375Y22575
X72375Y20575
X71375Y20575
X70375Y20575
X69375Y20575
X68375Y20575
X67375Y20575
X61175Y22575
X60175Y22575
X59175Y22575
X58175Y22575
X57175Y22575
X56175Y22575
X55175Y22575
X54175Y22575
X54175Y23775
X55175Y23775
X56175Y23775
X57175Y23775
X58175Y23775
X59175Y23775
X60175Y23775
X61175Y23775
X64375Y26275
X60175Y30775
X59175Y30775
X58175Y30775
X57175Y30775
X56175Y30775
X55175Y30775
X52175Y26275
X48975Y23775
X47975Y23775
X46975Y23775
X45975Y23775
X44975Y23775
X43975Y23775
X42975Y23775
X41975Y23775
X41975Y22575
X42975Y22575
X43975Y22575
X44975Y22575
X45975Y22575
X46975Y22575
X47975Y22575
X48975Y22575
X47975Y20575
X46975Y20575
X45975Y20575
X44975Y20575
X43975Y20575
X42975Y20575
X36775Y22575
X35775Y22575
X34775Y22575
X33775Y22575
X32775Y22575
X31775Y22575
X30775Y22575
X29775Y22575
X29775Y23775
X30775Y23775
X31775Y23775
X32775Y23775
X33775Y23775
X34775Y23775
X35775Y23775
X36775Y23775
X39975Y26275
X35775Y30775
X34775Y30775
X33775Y30775
X32775Y30775
X31775Y30775
X30775Y30775
X27775Y26275
X24575Y23775
X23575Y23775
X22575Y23775
X21575Y23775
X20575Y23775
X19575Y23775
X18575Y23775
X17575Y23775
X17575Y22575
X18575Y22575
X19575Y22575
X20575Y22575
X21575Y22575
X22575Y22575
X23575Y22575
X24575Y22575
X23575Y20575
X22575Y20575
X21575Y20575
X20575Y20575
X19575Y20575
X18575Y20575
X12375Y22575
X11375Y22575
X10375Y22575
X9375Y22575
X8375Y22575
X7375Y22575
X6375Y22575
X5375Y22575
X5375Y23775
X6375Y23775
X7375Y23775
X8375Y23775
X9375Y23775
X10375Y23775
X11375Y23775
X12375Y23775
X15575Y26275
X11375Y30775
X10375Y30775
X9375Y30775
X8375Y30775
X7375Y30775
X6375Y30775
X6375Y32775
X5375Y32775
X5375Y33975
X6375Y33975
X7375Y33975
X8375Y33975
X9375Y33975
X10375Y33975
X11375Y33975
X12375Y33975
X12375Y32775
X11375Y32775
X10375Y32775
X9375Y32775
X8375Y32775
X7375Y32775
X3375Y36475
X3375Y26275
X6375Y20575
X7375Y20575
X8375Y20575
X9375Y20575
X10375Y20575
X11375Y20575
X15575Y16075
X17575Y13575
X18575Y13575
X19575Y13575
X20575Y13575
X21575Y13575
X22575Y13575
X23575Y13575
X24575Y13575
X24575Y12375
X23575Y12375
X22575Y12375
X21575Y12375
X20575Y12375
X19575Y12375
X18575Y12375
X17575Y12375
X18575Y10375
X19575Y10375
X20575Y10375
X21575Y10375
X22575Y10375
X23575Y10375
X29775Y12375
X30775Y12375
X31775Y12375
X32775Y12375
X33775Y12375
X34775Y12375
X35775Y12375
X36775Y12375
X36775Y13575
X35775Y13575
X34775Y13575
X33775Y13575
X32775Y13575
X31775Y13575
X30775Y13575
X29775Y13575
X27775Y16075
X30775Y20575
X31775Y20575
X32775Y20575
X33775Y20575
X34775Y20575
X35775Y20575
X39975Y16075
X41975Y13575
X42975Y13575
X43975Y13575
X44975Y13575
X45975Y13575
X46975Y13575
X47975Y13575
X48975Y13575
X48975Y12375
X47975Y12375
X46975Y12375
X45975Y12375
X44975Y12375
X43975Y12375
X42975Y12375
X41975Y12375
X42975Y10375
X43975Y10375
X44975Y10375
X45975Y10375
X46975Y10375
X47975Y10375
X54175Y12375
X55175Y12375
X56175Y12375
X57175Y12375
X58175Y12375
X59175Y12375
X60175Y12375
X61175Y12375
X61175Y13575
X60175Y13575
X59175Y13575
X58175Y13575
X57175Y13575
X56175Y13575
X55175Y13575
X54175Y13575
X52175Y16075
X55175Y20575
X56175Y20575
X57175Y20575
X58175Y20575
X59175Y20575
X60175Y20575
X64375Y16075
X67375Y10375
X68375Y10375
X69375Y10375
X70375Y10375
X71375Y10375
X72375Y10375
X60175Y10375
X59175Y10375
X58175Y10375
X57175Y10375
X56175Y10375
X55175Y10375
X35775Y10375
X34775Y10375
X33775Y10375
X32775Y10375
X31775Y10375
X30775Y10375
X12375Y12375
X11375Y12375
X10375Y12375
X9375Y12375
X8375Y12375
X7375Y12375
X6375Y12375
X5375Y12375
X5375Y13575
X6375Y13575
X7375Y13575
X8375Y13575
X9375Y13575
X10375Y13575
X11375Y13575
X12375Y13575
X11375Y10375
X10375Y10375
X9375Y10375
X8375Y10375
X7375Y10375
X6375Y10375
X3375Y5875
X3375Y16075
X24575Y53175
X48975Y53175
X73375Y53175
X91775Y40975
X92775Y40975
X93775Y40975
X94775Y40975
X95775Y40975
X96775Y40975
X97775Y53175
X96775Y20575
X95775Y20575
X94775Y20575
X93775Y20575
X92775Y20575
X91775Y20575
T04
X89275Y22075
X87075Y22075
X77075Y22075
X74875Y22075
X64875Y22075
X62675Y22075
X52675Y22075
X50475Y22075
X40475Y22075
X38275Y22075
X28275Y22075
X26075Y22075
X16075Y22075
X13875Y22075
X3875Y22075
X3875Y11875
X13875Y11875
X16075Y11875
X26075Y11875
X28275Y11875
X38275Y11875
X40475Y11875
X50475Y11875
X52675Y11875
X62675Y11875
X64875Y11875
X74875Y11875
X77075Y11875
X87075Y11875
X89275Y11875
X99275Y11875
X99275Y22075
X99275Y32275
X89275Y32275
X87075Y32275
X77075Y32275
X74875Y32275
X64875Y32275
X62675Y32275
X52675Y32275
X50475Y32275
X40475Y32275
X38275Y32275
X28275Y32275
X26075Y32275
X16075Y32275
X13875Y32275
X3875Y32275
X3875Y42475
X13875Y42475
X16075Y42475
X26075Y42475
X28275Y42475
X38275Y42475
X40475Y42475
X50475Y42475
X52675Y42475
X62675Y42475
X64875Y42475
X74875Y42475
X77075Y42475
X87075Y42475
X89275Y42475
X99275Y42475
X99275Y52675
X89275Y52675
X87075Y52675
X77075Y52675
X74875Y52675
X64875Y52675
X62675Y52675
X52675Y52675
X50475Y52675
X40475Y52675
X38275Y52675
X28275Y52675
X26075Y52675
X16075Y52675
X13875Y52675
X3875Y52675
M30
