G75*
%MOIN*%
%OFA0B0*%
%FSLAX25Y25*%
%IPPOS*%
%LPD*%
%AMOC8*
5,1,8,0,0,1.08239X$1,22.5*
%
%ADD10C,0.13800*%
%ADD11C,0.03300*%
%ADD12R,0.08674X0.05524*%
%ADD13R,0.06115X0.03162*%
%ADD14C,0.08200*%
%ADD15R,0.04737X0.05131*%
%ADD16R,0.01784X0.04737*%
%ADD17R,0.04737X0.01784*%
%ADD18R,0.05131X0.04737*%
%ADD19R,0.05800X0.03300*%
%ADD20R,0.04737X0.07887*%
%ADD21C,0.01421*%
%ADD22C,0.04737*%
%ADD23C,0.05000*%
%ADD24C,0.06706*%
D10*
X0038750Y0118750D03*
X0138750Y0118750D03*
X0160750Y0118750D03*
X0260750Y0118750D03*
X0282750Y0118750D03*
X0382750Y0118750D03*
X0404750Y0118750D03*
X0504750Y0118750D03*
X0526750Y0118750D03*
X0626750Y0118750D03*
X0648750Y0118750D03*
X0748750Y0118750D03*
X0770750Y0118750D03*
X0870750Y0118750D03*
X0892750Y0118750D03*
X0992750Y0118750D03*
X0992750Y0220750D03*
X0892750Y0220750D03*
X0870750Y0220750D03*
X0770750Y0220750D03*
X0748750Y0220750D03*
X0648750Y0220750D03*
X0626750Y0220750D03*
X0526750Y0220750D03*
X0504750Y0220750D03*
X0404750Y0220750D03*
X0382750Y0220750D03*
X0282750Y0220750D03*
X0260750Y0220750D03*
X0160750Y0220750D03*
X0138750Y0220750D03*
X0038750Y0220750D03*
X0038750Y0322750D03*
X0138750Y0322750D03*
X0160750Y0322750D03*
X0260750Y0322750D03*
X0282750Y0322750D03*
X0382750Y0322750D03*
X0404750Y0322750D03*
X0504750Y0322750D03*
X0526750Y0322750D03*
X0626750Y0322750D03*
X0648750Y0322750D03*
X0748750Y0322750D03*
X0770750Y0322750D03*
X0870750Y0322750D03*
X0892750Y0322750D03*
X0992750Y0322750D03*
X0992750Y0424750D03*
X0892750Y0424750D03*
X0870750Y0424750D03*
X0770750Y0424750D03*
X0748750Y0424750D03*
X0648750Y0424750D03*
X0626750Y0424750D03*
X0526750Y0424750D03*
X0504750Y0424750D03*
X0404750Y0424750D03*
X0382750Y0424750D03*
X0282750Y0424750D03*
X0260750Y0424750D03*
X0160750Y0424750D03*
X0138750Y0424750D03*
X0038750Y0424750D03*
X0038750Y0526750D03*
X0138750Y0526750D03*
X0160750Y0526750D03*
X0260750Y0526750D03*
X0282750Y0526750D03*
X0382750Y0526750D03*
X0404750Y0526750D03*
X0504750Y0526750D03*
X0526750Y0526750D03*
X0626750Y0526750D03*
X0648750Y0526750D03*
X0748750Y0526750D03*
X0770750Y0526750D03*
X0870750Y0526750D03*
X0892750Y0526750D03*
X0992750Y0526750D03*
D11*
X0885750Y0533750D03*
X0763750Y0533750D03*
X0641750Y0533750D03*
X0519750Y0533750D03*
X0397750Y0533750D03*
X0275750Y0533750D03*
X0153750Y0533750D03*
X0031750Y0533750D03*
X0145250Y0440250D03*
X0153750Y0431750D03*
X0267250Y0440250D03*
X0275750Y0431750D03*
X0389250Y0440250D03*
X0397750Y0431750D03*
X0511250Y0440250D03*
X0519750Y0431750D03*
X0633250Y0440250D03*
X0641750Y0431750D03*
X0755250Y0440250D03*
X0763750Y0431750D03*
X0877250Y0440250D03*
X0885750Y0431750D03*
X0999250Y0440250D03*
X0999250Y0338250D03*
X0885750Y0329750D03*
X0877250Y0338250D03*
X0763750Y0329750D03*
X0755250Y0338250D03*
X0641750Y0329750D03*
X0633250Y0338250D03*
X0519750Y0329750D03*
X0511250Y0338250D03*
X0397750Y0329750D03*
X0389250Y0338250D03*
X0275750Y0329750D03*
X0267250Y0338250D03*
X0153750Y0329750D03*
X0145250Y0338250D03*
X0031750Y0329750D03*
X0145250Y0236250D03*
X0153750Y0227750D03*
X0267250Y0236250D03*
X0275750Y0227750D03*
X0389250Y0236250D03*
X0397750Y0227750D03*
X0511250Y0236250D03*
X0519750Y0227750D03*
X0633250Y0236250D03*
X0641750Y0227750D03*
X0755250Y0236250D03*
X0763750Y0227750D03*
X0877250Y0236250D03*
X0885750Y0227750D03*
X0999250Y0236250D03*
X0999250Y0134250D03*
X0885750Y0125750D03*
X0877250Y0134250D03*
X0763750Y0125750D03*
X0755250Y0134250D03*
X0641750Y0125750D03*
X0633250Y0134250D03*
X0519750Y0125750D03*
X0511250Y0134250D03*
X0397750Y0125750D03*
X0389250Y0134250D03*
X0275750Y0125750D03*
X0267250Y0134250D03*
X0153750Y0125750D03*
X0145250Y0134250D03*
X0031750Y0125750D03*
X0145250Y0032250D03*
X0267250Y0032250D03*
X0389250Y0032250D03*
X0511250Y0032250D03*
X0633250Y0032250D03*
X0755250Y0032250D03*
X0877250Y0032250D03*
X0999250Y0032250D03*
X0031750Y0227750D03*
X0031750Y0431750D03*
D12*
X0034281Y0395774D03*
X0034281Y0373726D03*
X0143219Y0373726D03*
X0156281Y0373726D03*
X0156281Y0395774D03*
X0143219Y0395774D03*
X0265219Y0395774D03*
X0278281Y0395774D03*
X0278281Y0373726D03*
X0265219Y0373726D03*
X0387219Y0373726D03*
X0400281Y0373726D03*
X0400281Y0395774D03*
X0387219Y0395774D03*
X0509219Y0395774D03*
X0522281Y0395774D03*
X0522281Y0373726D03*
X0509219Y0373726D03*
X0631219Y0373726D03*
X0644281Y0373726D03*
X0644281Y0395774D03*
X0631219Y0395774D03*
X0753219Y0395774D03*
X0766281Y0395774D03*
X0766281Y0373726D03*
X0753219Y0373726D03*
X0875219Y0373726D03*
X0888281Y0373726D03*
X0888281Y0395774D03*
X0875219Y0395774D03*
X0997219Y0395774D03*
X0997219Y0373726D03*
X0997219Y0293774D03*
X0997219Y0271726D03*
X0888281Y0271726D03*
X0875219Y0271726D03*
X0875219Y0293774D03*
X0888281Y0293774D03*
X0766281Y0293774D03*
X0753219Y0293774D03*
X0753219Y0271726D03*
X0766281Y0271726D03*
X0644281Y0271726D03*
X0631219Y0271726D03*
X0631219Y0293774D03*
X0644281Y0293774D03*
X0522281Y0293774D03*
X0509219Y0293774D03*
X0509219Y0271726D03*
X0522281Y0271726D03*
X0400281Y0271726D03*
X0387219Y0271726D03*
X0387219Y0293774D03*
X0400281Y0293774D03*
X0278281Y0293774D03*
X0265219Y0293774D03*
X0265219Y0271726D03*
X0278281Y0271726D03*
X0156281Y0271726D03*
X0143219Y0271726D03*
X0143219Y0293774D03*
X0156281Y0293774D03*
X0034281Y0293774D03*
X0034281Y0271726D03*
X0034281Y0191774D03*
X0034281Y0169726D03*
X0143219Y0169726D03*
X0156281Y0169726D03*
X0156281Y0191774D03*
X0143219Y0191774D03*
X0265219Y0191774D03*
X0278281Y0191774D03*
X0278281Y0169726D03*
X0265219Y0169726D03*
X0387219Y0169726D03*
X0400281Y0169726D03*
X0400281Y0191774D03*
X0387219Y0191774D03*
X0509219Y0191774D03*
X0522281Y0191774D03*
X0522281Y0169726D03*
X0509219Y0169726D03*
X0631219Y0169726D03*
X0644281Y0169726D03*
X0644281Y0191774D03*
X0631219Y0191774D03*
X0753219Y0191774D03*
X0766281Y0191774D03*
X0766281Y0169726D03*
X0753219Y0169726D03*
X0875219Y0169726D03*
X0888281Y0169726D03*
X0888281Y0191774D03*
X0875219Y0191774D03*
X0997219Y0191774D03*
X0997219Y0169726D03*
X0997219Y0089774D03*
X0997219Y0067726D03*
X0888281Y0067726D03*
X0875219Y0067726D03*
X0875219Y0089774D03*
X0888281Y0089774D03*
X0766281Y0089774D03*
X0753219Y0089774D03*
X0753219Y0067726D03*
X0766281Y0067726D03*
X0644281Y0067726D03*
X0631219Y0067726D03*
X0631219Y0089774D03*
X0644281Y0089774D03*
X0522281Y0089774D03*
X0509219Y0089774D03*
X0509219Y0067726D03*
X0522281Y0067726D03*
X0400281Y0067726D03*
X0387219Y0067726D03*
X0387219Y0089774D03*
X0400281Y0089774D03*
X0278281Y0089774D03*
X0265219Y0089774D03*
X0265219Y0067726D03*
X0278281Y0067726D03*
X0156281Y0067726D03*
X0143219Y0067726D03*
X0143219Y0089774D03*
X0156281Y0089774D03*
X0034281Y0089774D03*
X0034281Y0067726D03*
X0034281Y0475726D03*
X0034281Y0497774D03*
X0143219Y0497774D03*
X0156281Y0497774D03*
X0156281Y0475726D03*
X0143219Y0475726D03*
X0265219Y0475726D03*
X0278281Y0475726D03*
X0278281Y0497774D03*
X0265219Y0497774D03*
X0387219Y0497774D03*
X0400281Y0497774D03*
X0400281Y0475726D03*
X0387219Y0475726D03*
X0509219Y0475726D03*
X0522281Y0475726D03*
X0522281Y0497774D03*
X0509219Y0497774D03*
X0631219Y0497774D03*
X0644281Y0497774D03*
X0644281Y0475726D03*
X0631219Y0475726D03*
X0753219Y0475726D03*
X0766281Y0475726D03*
X0766281Y0497774D03*
X0753219Y0497774D03*
X0875219Y0497774D03*
X0888281Y0497774D03*
X0888281Y0475726D03*
X0875219Y0475726D03*
X0997219Y0475726D03*
X0997219Y0497774D03*
D13*
X0982750Y0492656D03*
X0982750Y0488719D03*
X0982750Y0484781D03*
X0982750Y0480844D03*
X0902750Y0480844D03*
X0902750Y0484781D03*
X0902750Y0488719D03*
X0902750Y0492656D03*
X0860750Y0492656D03*
X0860750Y0488719D03*
X0860750Y0484781D03*
X0860750Y0480844D03*
X0780750Y0480844D03*
X0780750Y0484781D03*
X0780750Y0488719D03*
X0780750Y0492656D03*
X0738750Y0492656D03*
X0738750Y0488719D03*
X0738750Y0484781D03*
X0738750Y0480844D03*
X0658750Y0480844D03*
X0658750Y0484781D03*
X0658750Y0488719D03*
X0658750Y0492656D03*
X0616750Y0492656D03*
X0616750Y0488719D03*
X0616750Y0484781D03*
X0616750Y0480844D03*
X0536750Y0480844D03*
X0536750Y0484781D03*
X0536750Y0488719D03*
X0536750Y0492656D03*
X0494750Y0492656D03*
X0494750Y0488719D03*
X0494750Y0484781D03*
X0494750Y0480844D03*
X0414750Y0480844D03*
X0414750Y0484781D03*
X0414750Y0488719D03*
X0414750Y0492656D03*
X0372750Y0492656D03*
X0372750Y0488719D03*
X0372750Y0484781D03*
X0372750Y0480844D03*
X0292750Y0480844D03*
X0292750Y0484781D03*
X0292750Y0488719D03*
X0292750Y0492656D03*
X0250750Y0492656D03*
X0250750Y0488719D03*
X0250750Y0484781D03*
X0250750Y0480844D03*
X0170750Y0480844D03*
X0170750Y0484781D03*
X0170750Y0488719D03*
X0170750Y0492656D03*
X0128750Y0492656D03*
X0128750Y0488719D03*
X0128750Y0484781D03*
X0128750Y0480844D03*
X0048750Y0480844D03*
X0048750Y0484781D03*
X0048750Y0488719D03*
X0048750Y0492656D03*
X0048750Y0390656D03*
X0048750Y0386719D03*
X0048750Y0382781D03*
X0048750Y0378844D03*
X0128750Y0378844D03*
X0128750Y0382781D03*
X0128750Y0386719D03*
X0128750Y0390656D03*
X0170750Y0390656D03*
X0170750Y0386719D03*
X0170750Y0382781D03*
X0170750Y0378844D03*
X0250750Y0378844D03*
X0250750Y0382781D03*
X0250750Y0386719D03*
X0250750Y0390656D03*
X0292750Y0390656D03*
X0292750Y0386719D03*
X0292750Y0382781D03*
X0292750Y0378844D03*
X0372750Y0378844D03*
X0372750Y0382781D03*
X0372750Y0386719D03*
X0372750Y0390656D03*
X0414750Y0390656D03*
X0414750Y0386719D03*
X0414750Y0382781D03*
X0414750Y0378844D03*
X0494750Y0378844D03*
X0494750Y0382781D03*
X0494750Y0386719D03*
X0494750Y0390656D03*
X0536750Y0390656D03*
X0536750Y0386719D03*
X0536750Y0382781D03*
X0536750Y0378844D03*
X0616750Y0378844D03*
X0616750Y0382781D03*
X0616750Y0386719D03*
X0616750Y0390656D03*
X0658750Y0390656D03*
X0658750Y0386719D03*
X0658750Y0382781D03*
X0658750Y0378844D03*
X0738750Y0378844D03*
X0738750Y0382781D03*
X0738750Y0386719D03*
X0738750Y0390656D03*
X0780750Y0390656D03*
X0780750Y0386719D03*
X0780750Y0382781D03*
X0780750Y0378844D03*
X0860750Y0378844D03*
X0860750Y0382781D03*
X0860750Y0386719D03*
X0860750Y0390656D03*
X0902750Y0390656D03*
X0902750Y0386719D03*
X0902750Y0382781D03*
X0902750Y0378844D03*
X0982750Y0378844D03*
X0982750Y0382781D03*
X0982750Y0386719D03*
X0982750Y0390656D03*
X0982750Y0288656D03*
X0982750Y0284719D03*
X0982750Y0280781D03*
X0982750Y0276844D03*
X0902750Y0276844D03*
X0902750Y0280781D03*
X0902750Y0284719D03*
X0902750Y0288656D03*
X0860750Y0288656D03*
X0860750Y0284719D03*
X0860750Y0280781D03*
X0860750Y0276844D03*
X0780750Y0276844D03*
X0780750Y0280781D03*
X0780750Y0284719D03*
X0780750Y0288656D03*
X0738750Y0288656D03*
X0738750Y0284719D03*
X0738750Y0280781D03*
X0738750Y0276844D03*
X0658750Y0276844D03*
X0658750Y0280781D03*
X0658750Y0284719D03*
X0658750Y0288656D03*
X0616750Y0288656D03*
X0616750Y0284719D03*
X0616750Y0280781D03*
X0616750Y0276844D03*
X0536750Y0276844D03*
X0536750Y0280781D03*
X0536750Y0284719D03*
X0536750Y0288656D03*
X0494750Y0288656D03*
X0494750Y0284719D03*
X0494750Y0280781D03*
X0494750Y0276844D03*
X0414750Y0276844D03*
X0414750Y0280781D03*
X0414750Y0284719D03*
X0414750Y0288656D03*
X0372750Y0288656D03*
X0372750Y0284719D03*
X0372750Y0280781D03*
X0372750Y0276844D03*
X0292750Y0276844D03*
X0292750Y0280781D03*
X0292750Y0284719D03*
X0292750Y0288656D03*
X0250750Y0288656D03*
X0250750Y0284719D03*
X0250750Y0280781D03*
X0250750Y0276844D03*
X0170750Y0276844D03*
X0170750Y0280781D03*
X0170750Y0284719D03*
X0170750Y0288656D03*
X0128750Y0288656D03*
X0128750Y0284719D03*
X0128750Y0280781D03*
X0128750Y0276844D03*
X0048750Y0276844D03*
X0048750Y0280781D03*
X0048750Y0284719D03*
X0048750Y0288656D03*
X0048750Y0186656D03*
X0048750Y0182719D03*
X0048750Y0178781D03*
X0048750Y0174844D03*
X0128750Y0174844D03*
X0128750Y0178781D03*
X0128750Y0182719D03*
X0128750Y0186656D03*
X0170750Y0186656D03*
X0170750Y0182719D03*
X0170750Y0178781D03*
X0170750Y0174844D03*
X0250750Y0174844D03*
X0250750Y0178781D03*
X0250750Y0182719D03*
X0250750Y0186656D03*
X0292750Y0186656D03*
X0292750Y0182719D03*
X0292750Y0178781D03*
X0292750Y0174844D03*
X0372750Y0174844D03*
X0372750Y0178781D03*
X0372750Y0182719D03*
X0372750Y0186656D03*
X0414750Y0186656D03*
X0414750Y0182719D03*
X0414750Y0178781D03*
X0414750Y0174844D03*
X0494750Y0174844D03*
X0494750Y0178781D03*
X0494750Y0182719D03*
X0494750Y0186656D03*
X0536750Y0186656D03*
X0536750Y0182719D03*
X0536750Y0178781D03*
X0536750Y0174844D03*
X0616750Y0174844D03*
X0616750Y0178781D03*
X0616750Y0182719D03*
X0616750Y0186656D03*
X0658750Y0186656D03*
X0658750Y0182719D03*
X0658750Y0178781D03*
X0658750Y0174844D03*
X0738750Y0174844D03*
X0738750Y0178781D03*
X0738750Y0182719D03*
X0738750Y0186656D03*
X0780750Y0186656D03*
X0780750Y0182719D03*
X0780750Y0178781D03*
X0780750Y0174844D03*
X0860750Y0174844D03*
X0860750Y0178781D03*
X0860750Y0182719D03*
X0860750Y0186656D03*
X0902750Y0186656D03*
X0902750Y0182719D03*
X0902750Y0178781D03*
X0902750Y0174844D03*
X0982750Y0174844D03*
X0982750Y0178781D03*
X0982750Y0182719D03*
X0982750Y0186656D03*
X0982750Y0084656D03*
X0982750Y0080719D03*
X0982750Y0076781D03*
X0982750Y0072844D03*
X0902750Y0072844D03*
X0902750Y0076781D03*
X0902750Y0080719D03*
X0902750Y0084656D03*
X0860750Y0084656D03*
X0860750Y0080719D03*
X0860750Y0076781D03*
X0860750Y0072844D03*
X0780750Y0072844D03*
X0780750Y0076781D03*
X0780750Y0080719D03*
X0780750Y0084656D03*
X0738750Y0084656D03*
X0738750Y0080719D03*
X0738750Y0076781D03*
X0738750Y0072844D03*
X0658750Y0072844D03*
X0658750Y0076781D03*
X0658750Y0080719D03*
X0658750Y0084656D03*
X0616750Y0084656D03*
X0616750Y0080719D03*
X0616750Y0076781D03*
X0616750Y0072844D03*
X0536750Y0072844D03*
X0536750Y0076781D03*
X0536750Y0080719D03*
X0536750Y0084656D03*
X0494750Y0084656D03*
X0494750Y0080719D03*
X0494750Y0076781D03*
X0494750Y0072844D03*
X0414750Y0072844D03*
X0414750Y0076781D03*
X0414750Y0080719D03*
X0414750Y0084656D03*
X0372750Y0084656D03*
X0372750Y0080719D03*
X0372750Y0076781D03*
X0372750Y0072844D03*
X0292750Y0072844D03*
X0292750Y0076781D03*
X0292750Y0080719D03*
X0292750Y0084656D03*
X0250750Y0084656D03*
X0250750Y0080719D03*
X0250750Y0076781D03*
X0250750Y0072844D03*
X0170750Y0072844D03*
X0170750Y0076781D03*
X0170750Y0080719D03*
X0170750Y0084656D03*
X0128750Y0084656D03*
X0128750Y0080719D03*
X0128750Y0076781D03*
X0128750Y0072844D03*
X0048750Y0072844D03*
X0048750Y0076781D03*
X0048750Y0080719D03*
X0048750Y0084656D03*
D14*
X0063750Y0103750D03*
X0073750Y0103750D03*
X0083750Y0103750D03*
X0093750Y0103750D03*
X0103750Y0103750D03*
X0113750Y0103750D03*
X0113750Y0123750D03*
X0103750Y0123750D03*
X0093750Y0123750D03*
X0083750Y0123750D03*
X0073750Y0123750D03*
X0063750Y0123750D03*
X0053750Y0123750D03*
X0053750Y0135750D03*
X0063750Y0135750D03*
X0073750Y0135750D03*
X0083750Y0135750D03*
X0093750Y0135750D03*
X0103750Y0135750D03*
X0113750Y0135750D03*
X0123750Y0135750D03*
X0123750Y0123750D03*
X0175750Y0123750D03*
X0185750Y0123750D03*
X0195750Y0123750D03*
X0205750Y0123750D03*
X0215750Y0123750D03*
X0225750Y0123750D03*
X0235750Y0123750D03*
X0245750Y0123750D03*
X0245750Y0135750D03*
X0235750Y0135750D03*
X0225750Y0135750D03*
X0215750Y0135750D03*
X0205750Y0135750D03*
X0195750Y0135750D03*
X0185750Y0135750D03*
X0175750Y0135750D03*
X0155750Y0160750D03*
X0185750Y0205750D03*
X0195750Y0205750D03*
X0205750Y0205750D03*
X0215750Y0205750D03*
X0225750Y0205750D03*
X0235750Y0205750D03*
X0235750Y0225750D03*
X0225750Y0225750D03*
X0215750Y0225750D03*
X0205750Y0225750D03*
X0195750Y0225750D03*
X0185750Y0225750D03*
X0175750Y0225750D03*
X0175750Y0237750D03*
X0185750Y0237750D03*
X0195750Y0237750D03*
X0205750Y0237750D03*
X0215750Y0237750D03*
X0225750Y0237750D03*
X0235750Y0237750D03*
X0245750Y0237750D03*
X0245750Y0225750D03*
X0297750Y0225750D03*
X0307750Y0225750D03*
X0317750Y0225750D03*
X0327750Y0225750D03*
X0337750Y0225750D03*
X0347750Y0225750D03*
X0357750Y0225750D03*
X0367750Y0225750D03*
X0367750Y0237750D03*
X0357750Y0237750D03*
X0347750Y0237750D03*
X0337750Y0237750D03*
X0327750Y0237750D03*
X0317750Y0237750D03*
X0307750Y0237750D03*
X0297750Y0237750D03*
X0277750Y0262750D03*
X0307750Y0307750D03*
X0317750Y0307750D03*
X0327750Y0307750D03*
X0337750Y0307750D03*
X0347750Y0307750D03*
X0357750Y0307750D03*
X0357750Y0327750D03*
X0347750Y0327750D03*
X0337750Y0327750D03*
X0327750Y0327750D03*
X0317750Y0327750D03*
X0307750Y0327750D03*
X0297750Y0327750D03*
X0297750Y0339750D03*
X0307750Y0339750D03*
X0317750Y0339750D03*
X0327750Y0339750D03*
X0337750Y0339750D03*
X0347750Y0339750D03*
X0357750Y0339750D03*
X0367750Y0339750D03*
X0367750Y0327750D03*
X0419750Y0327750D03*
X0429750Y0327750D03*
X0439750Y0327750D03*
X0449750Y0327750D03*
X0459750Y0327750D03*
X0469750Y0327750D03*
X0479750Y0327750D03*
X0489750Y0327750D03*
X0489750Y0339750D03*
X0479750Y0339750D03*
X0469750Y0339750D03*
X0459750Y0339750D03*
X0449750Y0339750D03*
X0439750Y0339750D03*
X0429750Y0339750D03*
X0419750Y0339750D03*
X0399750Y0364750D03*
X0429750Y0409750D03*
X0439750Y0409750D03*
X0449750Y0409750D03*
X0459750Y0409750D03*
X0469750Y0409750D03*
X0479750Y0409750D03*
X0479750Y0429750D03*
X0469750Y0429750D03*
X0459750Y0429750D03*
X0449750Y0429750D03*
X0439750Y0429750D03*
X0429750Y0429750D03*
X0419750Y0429750D03*
X0419750Y0441750D03*
X0429750Y0441750D03*
X0439750Y0441750D03*
X0449750Y0441750D03*
X0459750Y0441750D03*
X0469750Y0441750D03*
X0479750Y0441750D03*
X0489750Y0441750D03*
X0489750Y0429750D03*
X0541750Y0429750D03*
X0551750Y0429750D03*
X0561750Y0429750D03*
X0571750Y0429750D03*
X0581750Y0429750D03*
X0591750Y0429750D03*
X0601750Y0429750D03*
X0611750Y0429750D03*
X0611750Y0441750D03*
X0601750Y0441750D03*
X0591750Y0441750D03*
X0581750Y0441750D03*
X0571750Y0441750D03*
X0561750Y0441750D03*
X0551750Y0441750D03*
X0541750Y0441750D03*
X0521750Y0466750D03*
X0551750Y0511750D03*
X0561750Y0511750D03*
X0571750Y0511750D03*
X0581750Y0511750D03*
X0591750Y0511750D03*
X0601750Y0511750D03*
X0601750Y0531750D03*
X0591750Y0531750D03*
X0581750Y0531750D03*
X0571750Y0531750D03*
X0561750Y0531750D03*
X0551750Y0531750D03*
X0541750Y0531750D03*
X0489750Y0531750D03*
X0479750Y0531750D03*
X0469750Y0531750D03*
X0459750Y0531750D03*
X0449750Y0531750D03*
X0439750Y0531750D03*
X0429750Y0531750D03*
X0419750Y0531750D03*
X0429750Y0511750D03*
X0439750Y0511750D03*
X0449750Y0511750D03*
X0459750Y0511750D03*
X0469750Y0511750D03*
X0479750Y0511750D03*
X0399750Y0466750D03*
X0367750Y0441750D03*
X0357750Y0441750D03*
X0347750Y0441750D03*
X0337750Y0441750D03*
X0327750Y0441750D03*
X0317750Y0441750D03*
X0307750Y0441750D03*
X0297750Y0441750D03*
X0297750Y0429750D03*
X0307750Y0429750D03*
X0317750Y0429750D03*
X0327750Y0429750D03*
X0337750Y0429750D03*
X0347750Y0429750D03*
X0357750Y0429750D03*
X0367750Y0429750D03*
X0357750Y0409750D03*
X0347750Y0409750D03*
X0337750Y0409750D03*
X0327750Y0409750D03*
X0317750Y0409750D03*
X0307750Y0409750D03*
X0245750Y0429750D03*
X0235750Y0429750D03*
X0225750Y0429750D03*
X0215750Y0429750D03*
X0205750Y0429750D03*
X0195750Y0429750D03*
X0185750Y0429750D03*
X0175750Y0429750D03*
X0175750Y0441750D03*
X0185750Y0441750D03*
X0195750Y0441750D03*
X0205750Y0441750D03*
X0215750Y0441750D03*
X0225750Y0441750D03*
X0235750Y0441750D03*
X0245750Y0441750D03*
X0277750Y0466750D03*
X0307750Y0511750D03*
X0317750Y0511750D03*
X0327750Y0511750D03*
X0337750Y0511750D03*
X0347750Y0511750D03*
X0357750Y0511750D03*
X0357750Y0531750D03*
X0347750Y0531750D03*
X0337750Y0531750D03*
X0327750Y0531750D03*
X0317750Y0531750D03*
X0307750Y0531750D03*
X0297750Y0531750D03*
X0245750Y0531750D03*
X0235750Y0531750D03*
X0225750Y0531750D03*
X0215750Y0531750D03*
X0205750Y0531750D03*
X0195750Y0531750D03*
X0185750Y0531750D03*
X0175750Y0531750D03*
X0185750Y0511750D03*
X0195750Y0511750D03*
X0205750Y0511750D03*
X0215750Y0511750D03*
X0225750Y0511750D03*
X0235750Y0511750D03*
X0155750Y0466750D03*
X0123750Y0441750D03*
X0113750Y0441750D03*
X0103750Y0441750D03*
X0093750Y0441750D03*
X0083750Y0441750D03*
X0073750Y0441750D03*
X0063750Y0441750D03*
X0053750Y0441750D03*
X0053750Y0429750D03*
X0063750Y0429750D03*
X0073750Y0429750D03*
X0083750Y0429750D03*
X0093750Y0429750D03*
X0103750Y0429750D03*
X0113750Y0429750D03*
X0123750Y0429750D03*
X0113750Y0409750D03*
X0103750Y0409750D03*
X0093750Y0409750D03*
X0083750Y0409750D03*
X0073750Y0409750D03*
X0063750Y0409750D03*
X0033750Y0364750D03*
X0053750Y0339750D03*
X0063750Y0339750D03*
X0073750Y0339750D03*
X0083750Y0339750D03*
X0093750Y0339750D03*
X0103750Y0339750D03*
X0113750Y0339750D03*
X0123750Y0339750D03*
X0123750Y0327750D03*
X0113750Y0327750D03*
X0103750Y0327750D03*
X0093750Y0327750D03*
X0083750Y0327750D03*
X0073750Y0327750D03*
X0063750Y0327750D03*
X0053750Y0327750D03*
X0063750Y0307750D03*
X0073750Y0307750D03*
X0083750Y0307750D03*
X0093750Y0307750D03*
X0103750Y0307750D03*
X0113750Y0307750D03*
X0175750Y0327750D03*
X0185750Y0327750D03*
X0195750Y0327750D03*
X0205750Y0327750D03*
X0215750Y0327750D03*
X0225750Y0327750D03*
X0235750Y0327750D03*
X0245750Y0327750D03*
X0245750Y0339750D03*
X0235750Y0339750D03*
X0225750Y0339750D03*
X0215750Y0339750D03*
X0205750Y0339750D03*
X0195750Y0339750D03*
X0185750Y0339750D03*
X0175750Y0339750D03*
X0155750Y0364750D03*
X0185750Y0409750D03*
X0195750Y0409750D03*
X0205750Y0409750D03*
X0215750Y0409750D03*
X0225750Y0409750D03*
X0235750Y0409750D03*
X0277750Y0364750D03*
X0235750Y0307750D03*
X0225750Y0307750D03*
X0215750Y0307750D03*
X0205750Y0307750D03*
X0195750Y0307750D03*
X0185750Y0307750D03*
X0155750Y0262750D03*
X0123750Y0237750D03*
X0113750Y0237750D03*
X0103750Y0237750D03*
X0093750Y0237750D03*
X0083750Y0237750D03*
X0073750Y0237750D03*
X0063750Y0237750D03*
X0053750Y0237750D03*
X0053750Y0225750D03*
X0063750Y0225750D03*
X0073750Y0225750D03*
X0083750Y0225750D03*
X0093750Y0225750D03*
X0103750Y0225750D03*
X0113750Y0225750D03*
X0123750Y0225750D03*
X0113750Y0205750D03*
X0103750Y0205750D03*
X0093750Y0205750D03*
X0083750Y0205750D03*
X0073750Y0205750D03*
X0063750Y0205750D03*
X0033750Y0160750D03*
X0185750Y0103750D03*
X0195750Y0103750D03*
X0205750Y0103750D03*
X0215750Y0103750D03*
X0225750Y0103750D03*
X0235750Y0103750D03*
X0297750Y0123750D03*
X0307750Y0123750D03*
X0317750Y0123750D03*
X0327750Y0123750D03*
X0337750Y0123750D03*
X0347750Y0123750D03*
X0357750Y0123750D03*
X0367750Y0123750D03*
X0367750Y0135750D03*
X0357750Y0135750D03*
X0347750Y0135750D03*
X0337750Y0135750D03*
X0327750Y0135750D03*
X0317750Y0135750D03*
X0307750Y0135750D03*
X0297750Y0135750D03*
X0277750Y0160750D03*
X0307750Y0205750D03*
X0317750Y0205750D03*
X0327750Y0205750D03*
X0337750Y0205750D03*
X0347750Y0205750D03*
X0357750Y0205750D03*
X0419750Y0225750D03*
X0429750Y0225750D03*
X0439750Y0225750D03*
X0449750Y0225750D03*
X0459750Y0225750D03*
X0469750Y0225750D03*
X0479750Y0225750D03*
X0489750Y0225750D03*
X0489750Y0237750D03*
X0479750Y0237750D03*
X0469750Y0237750D03*
X0459750Y0237750D03*
X0449750Y0237750D03*
X0439750Y0237750D03*
X0429750Y0237750D03*
X0419750Y0237750D03*
X0399750Y0262750D03*
X0429750Y0307750D03*
X0439750Y0307750D03*
X0449750Y0307750D03*
X0459750Y0307750D03*
X0469750Y0307750D03*
X0479750Y0307750D03*
X0541750Y0327750D03*
X0551750Y0327750D03*
X0561750Y0327750D03*
X0571750Y0327750D03*
X0581750Y0327750D03*
X0591750Y0327750D03*
X0601750Y0327750D03*
X0611750Y0327750D03*
X0611750Y0339750D03*
X0601750Y0339750D03*
X0591750Y0339750D03*
X0581750Y0339750D03*
X0571750Y0339750D03*
X0561750Y0339750D03*
X0551750Y0339750D03*
X0541750Y0339750D03*
X0521750Y0364750D03*
X0551750Y0409750D03*
X0561750Y0409750D03*
X0571750Y0409750D03*
X0581750Y0409750D03*
X0591750Y0409750D03*
X0601750Y0409750D03*
X0663750Y0429750D03*
X0673750Y0429750D03*
X0683750Y0429750D03*
X0693750Y0429750D03*
X0703750Y0429750D03*
X0713750Y0429750D03*
X0723750Y0429750D03*
X0733750Y0429750D03*
X0733750Y0441750D03*
X0723750Y0441750D03*
X0713750Y0441750D03*
X0703750Y0441750D03*
X0693750Y0441750D03*
X0683750Y0441750D03*
X0673750Y0441750D03*
X0663750Y0441750D03*
X0643750Y0466750D03*
X0673750Y0511750D03*
X0683750Y0511750D03*
X0693750Y0511750D03*
X0703750Y0511750D03*
X0713750Y0511750D03*
X0723750Y0511750D03*
X0723750Y0531750D03*
X0713750Y0531750D03*
X0703750Y0531750D03*
X0693750Y0531750D03*
X0683750Y0531750D03*
X0673750Y0531750D03*
X0663750Y0531750D03*
X0611750Y0531750D03*
X0733750Y0531750D03*
X0785750Y0531750D03*
X0795750Y0531750D03*
X0805750Y0531750D03*
X0815750Y0531750D03*
X0825750Y0531750D03*
X0835750Y0531750D03*
X0845750Y0531750D03*
X0855750Y0531750D03*
X0845750Y0511750D03*
X0835750Y0511750D03*
X0825750Y0511750D03*
X0815750Y0511750D03*
X0805750Y0511750D03*
X0795750Y0511750D03*
X0765750Y0466750D03*
X0785750Y0441750D03*
X0795750Y0441750D03*
X0805750Y0441750D03*
X0815750Y0441750D03*
X0825750Y0441750D03*
X0835750Y0441750D03*
X0845750Y0441750D03*
X0855750Y0441750D03*
X0855750Y0429750D03*
X0845750Y0429750D03*
X0835750Y0429750D03*
X0825750Y0429750D03*
X0815750Y0429750D03*
X0805750Y0429750D03*
X0795750Y0429750D03*
X0785750Y0429750D03*
X0795750Y0409750D03*
X0805750Y0409750D03*
X0815750Y0409750D03*
X0825750Y0409750D03*
X0835750Y0409750D03*
X0845750Y0409750D03*
X0907750Y0429750D03*
X0917750Y0429750D03*
X0927750Y0429750D03*
X0937750Y0429750D03*
X0947750Y0429750D03*
X0957750Y0429750D03*
X0967750Y0429750D03*
X0977750Y0429750D03*
X0977750Y0441750D03*
X0967750Y0441750D03*
X0957750Y0441750D03*
X0947750Y0441750D03*
X0937750Y0441750D03*
X0927750Y0441750D03*
X0917750Y0441750D03*
X0907750Y0441750D03*
X0887750Y0466750D03*
X0917750Y0511750D03*
X0927750Y0511750D03*
X0937750Y0511750D03*
X0947750Y0511750D03*
X0957750Y0511750D03*
X0967750Y0511750D03*
X0967750Y0531750D03*
X0957750Y0531750D03*
X0947750Y0531750D03*
X0937750Y0531750D03*
X0927750Y0531750D03*
X0917750Y0531750D03*
X0907750Y0531750D03*
X0977750Y0531750D03*
X0967750Y0409750D03*
X0957750Y0409750D03*
X0947750Y0409750D03*
X0937750Y0409750D03*
X0927750Y0409750D03*
X0917750Y0409750D03*
X0887750Y0364750D03*
X0907750Y0339750D03*
X0917750Y0339750D03*
X0927750Y0339750D03*
X0937750Y0339750D03*
X0947750Y0339750D03*
X0957750Y0339750D03*
X0967750Y0339750D03*
X0977750Y0339750D03*
X0977750Y0327750D03*
X0967750Y0327750D03*
X0957750Y0327750D03*
X0947750Y0327750D03*
X0937750Y0327750D03*
X0927750Y0327750D03*
X0917750Y0327750D03*
X0907750Y0327750D03*
X0917750Y0307750D03*
X0927750Y0307750D03*
X0937750Y0307750D03*
X0947750Y0307750D03*
X0957750Y0307750D03*
X0967750Y0307750D03*
X0887750Y0262750D03*
X0907750Y0237750D03*
X0917750Y0237750D03*
X0927750Y0237750D03*
X0937750Y0237750D03*
X0947750Y0237750D03*
X0957750Y0237750D03*
X0967750Y0237750D03*
X0977750Y0237750D03*
X0977750Y0225750D03*
X0967750Y0225750D03*
X0957750Y0225750D03*
X0947750Y0225750D03*
X0937750Y0225750D03*
X0927750Y0225750D03*
X0917750Y0225750D03*
X0907750Y0225750D03*
X0917750Y0205750D03*
X0927750Y0205750D03*
X0937750Y0205750D03*
X0947750Y0205750D03*
X0957750Y0205750D03*
X0967750Y0205750D03*
X0887750Y0160750D03*
X0907750Y0135750D03*
X0917750Y0135750D03*
X0927750Y0135750D03*
X0937750Y0135750D03*
X0947750Y0135750D03*
X0957750Y0135750D03*
X0967750Y0135750D03*
X0977750Y0135750D03*
X0977750Y0123750D03*
X0967750Y0123750D03*
X0957750Y0123750D03*
X0947750Y0123750D03*
X0937750Y0123750D03*
X0927750Y0123750D03*
X0917750Y0123750D03*
X0907750Y0123750D03*
X0917750Y0103750D03*
X0927750Y0103750D03*
X0937750Y0103750D03*
X0947750Y0103750D03*
X0957750Y0103750D03*
X0967750Y0103750D03*
X0887750Y0058750D03*
X0907750Y0033750D03*
X0917750Y0033750D03*
X0927750Y0033750D03*
X0937750Y0033750D03*
X0947750Y0033750D03*
X0957750Y0033750D03*
X0967750Y0033750D03*
X0977750Y0033750D03*
X0855750Y0033750D03*
X0845750Y0033750D03*
X0835750Y0033750D03*
X0825750Y0033750D03*
X0815750Y0033750D03*
X0805750Y0033750D03*
X0795750Y0033750D03*
X0785750Y0033750D03*
X0765750Y0058750D03*
X0733750Y0033750D03*
X0723750Y0033750D03*
X0713750Y0033750D03*
X0703750Y0033750D03*
X0693750Y0033750D03*
X0683750Y0033750D03*
X0673750Y0033750D03*
X0663750Y0033750D03*
X0643750Y0058750D03*
X0611750Y0033750D03*
X0601750Y0033750D03*
X0591750Y0033750D03*
X0581750Y0033750D03*
X0571750Y0033750D03*
X0561750Y0033750D03*
X0551750Y0033750D03*
X0541750Y0033750D03*
X0521750Y0058750D03*
X0489750Y0033750D03*
X0479750Y0033750D03*
X0469750Y0033750D03*
X0459750Y0033750D03*
X0449750Y0033750D03*
X0439750Y0033750D03*
X0429750Y0033750D03*
X0419750Y0033750D03*
X0399750Y0058750D03*
X0367750Y0033750D03*
X0357750Y0033750D03*
X0347750Y0033750D03*
X0337750Y0033750D03*
X0327750Y0033750D03*
X0317750Y0033750D03*
X0307750Y0033750D03*
X0297750Y0033750D03*
X0277750Y0058750D03*
X0245750Y0033750D03*
X0235750Y0033750D03*
X0225750Y0033750D03*
X0215750Y0033750D03*
X0205750Y0033750D03*
X0195750Y0033750D03*
X0185750Y0033750D03*
X0175750Y0033750D03*
X0155750Y0058750D03*
X0123750Y0033750D03*
X0113750Y0033750D03*
X0103750Y0033750D03*
X0093750Y0033750D03*
X0083750Y0033750D03*
X0073750Y0033750D03*
X0063750Y0033750D03*
X0053750Y0033750D03*
X0033750Y0058750D03*
X0307750Y0103750D03*
X0317750Y0103750D03*
X0327750Y0103750D03*
X0337750Y0103750D03*
X0347750Y0103750D03*
X0357750Y0103750D03*
X0419750Y0123750D03*
X0429750Y0123750D03*
X0439750Y0123750D03*
X0449750Y0123750D03*
X0459750Y0123750D03*
X0469750Y0123750D03*
X0479750Y0123750D03*
X0489750Y0123750D03*
X0489750Y0135750D03*
X0479750Y0135750D03*
X0469750Y0135750D03*
X0459750Y0135750D03*
X0449750Y0135750D03*
X0439750Y0135750D03*
X0429750Y0135750D03*
X0419750Y0135750D03*
X0399750Y0160750D03*
X0429750Y0205750D03*
X0439750Y0205750D03*
X0449750Y0205750D03*
X0459750Y0205750D03*
X0469750Y0205750D03*
X0479750Y0205750D03*
X0541750Y0225750D03*
X0551750Y0225750D03*
X0561750Y0225750D03*
X0571750Y0225750D03*
X0581750Y0225750D03*
X0591750Y0225750D03*
X0601750Y0225750D03*
X0611750Y0225750D03*
X0611750Y0237750D03*
X0601750Y0237750D03*
X0591750Y0237750D03*
X0581750Y0237750D03*
X0571750Y0237750D03*
X0561750Y0237750D03*
X0551750Y0237750D03*
X0541750Y0237750D03*
X0521750Y0262750D03*
X0551750Y0307750D03*
X0561750Y0307750D03*
X0571750Y0307750D03*
X0581750Y0307750D03*
X0591750Y0307750D03*
X0601750Y0307750D03*
X0663750Y0327750D03*
X0673750Y0327750D03*
X0683750Y0327750D03*
X0693750Y0327750D03*
X0703750Y0327750D03*
X0713750Y0327750D03*
X0723750Y0327750D03*
X0733750Y0327750D03*
X0733750Y0339750D03*
X0723750Y0339750D03*
X0713750Y0339750D03*
X0703750Y0339750D03*
X0693750Y0339750D03*
X0683750Y0339750D03*
X0673750Y0339750D03*
X0663750Y0339750D03*
X0643750Y0364750D03*
X0673750Y0409750D03*
X0683750Y0409750D03*
X0693750Y0409750D03*
X0703750Y0409750D03*
X0713750Y0409750D03*
X0723750Y0409750D03*
X0765750Y0364750D03*
X0785750Y0339750D03*
X0795750Y0339750D03*
X0805750Y0339750D03*
X0815750Y0339750D03*
X0825750Y0339750D03*
X0835750Y0339750D03*
X0845750Y0339750D03*
X0855750Y0339750D03*
X0855750Y0327750D03*
X0845750Y0327750D03*
X0835750Y0327750D03*
X0825750Y0327750D03*
X0815750Y0327750D03*
X0805750Y0327750D03*
X0795750Y0327750D03*
X0785750Y0327750D03*
X0795750Y0307750D03*
X0805750Y0307750D03*
X0815750Y0307750D03*
X0825750Y0307750D03*
X0835750Y0307750D03*
X0845750Y0307750D03*
X0765750Y0262750D03*
X0785750Y0237750D03*
X0795750Y0237750D03*
X0805750Y0237750D03*
X0815750Y0237750D03*
X0825750Y0237750D03*
X0835750Y0237750D03*
X0845750Y0237750D03*
X0855750Y0237750D03*
X0855750Y0225750D03*
X0845750Y0225750D03*
X0835750Y0225750D03*
X0825750Y0225750D03*
X0815750Y0225750D03*
X0805750Y0225750D03*
X0795750Y0225750D03*
X0785750Y0225750D03*
X0795750Y0205750D03*
X0805750Y0205750D03*
X0815750Y0205750D03*
X0825750Y0205750D03*
X0835750Y0205750D03*
X0845750Y0205750D03*
X0765750Y0160750D03*
X0785750Y0135750D03*
X0795750Y0135750D03*
X0805750Y0135750D03*
X0815750Y0135750D03*
X0825750Y0135750D03*
X0835750Y0135750D03*
X0845750Y0135750D03*
X0855750Y0135750D03*
X0855750Y0123750D03*
X0845750Y0123750D03*
X0835750Y0123750D03*
X0825750Y0123750D03*
X0815750Y0123750D03*
X0805750Y0123750D03*
X0795750Y0123750D03*
X0785750Y0123750D03*
X0795750Y0103750D03*
X0805750Y0103750D03*
X0815750Y0103750D03*
X0825750Y0103750D03*
X0835750Y0103750D03*
X0845750Y0103750D03*
X0733750Y0123750D03*
X0723750Y0123750D03*
X0713750Y0123750D03*
X0703750Y0123750D03*
X0693750Y0123750D03*
X0683750Y0123750D03*
X0673750Y0123750D03*
X0663750Y0123750D03*
X0663750Y0135750D03*
X0673750Y0135750D03*
X0683750Y0135750D03*
X0693750Y0135750D03*
X0703750Y0135750D03*
X0713750Y0135750D03*
X0723750Y0135750D03*
X0733750Y0135750D03*
X0723750Y0103750D03*
X0713750Y0103750D03*
X0703750Y0103750D03*
X0693750Y0103750D03*
X0683750Y0103750D03*
X0673750Y0103750D03*
X0611750Y0123750D03*
X0601750Y0123750D03*
X0591750Y0123750D03*
X0581750Y0123750D03*
X0571750Y0123750D03*
X0561750Y0123750D03*
X0551750Y0123750D03*
X0541750Y0123750D03*
X0541750Y0135750D03*
X0551750Y0135750D03*
X0561750Y0135750D03*
X0571750Y0135750D03*
X0581750Y0135750D03*
X0591750Y0135750D03*
X0601750Y0135750D03*
X0611750Y0135750D03*
X0643750Y0160750D03*
X0673750Y0205750D03*
X0683750Y0205750D03*
X0693750Y0205750D03*
X0703750Y0205750D03*
X0713750Y0205750D03*
X0723750Y0205750D03*
X0723750Y0225750D03*
X0713750Y0225750D03*
X0703750Y0225750D03*
X0693750Y0225750D03*
X0683750Y0225750D03*
X0673750Y0225750D03*
X0663750Y0225750D03*
X0663750Y0237750D03*
X0673750Y0237750D03*
X0683750Y0237750D03*
X0693750Y0237750D03*
X0703750Y0237750D03*
X0713750Y0237750D03*
X0723750Y0237750D03*
X0733750Y0237750D03*
X0733750Y0225750D03*
X0643750Y0262750D03*
X0673750Y0307750D03*
X0683750Y0307750D03*
X0693750Y0307750D03*
X0703750Y0307750D03*
X0713750Y0307750D03*
X0723750Y0307750D03*
X0601750Y0205750D03*
X0591750Y0205750D03*
X0581750Y0205750D03*
X0571750Y0205750D03*
X0561750Y0205750D03*
X0551750Y0205750D03*
X0521750Y0160750D03*
X0551750Y0103750D03*
X0561750Y0103750D03*
X0571750Y0103750D03*
X0581750Y0103750D03*
X0591750Y0103750D03*
X0601750Y0103750D03*
X0479750Y0103750D03*
X0469750Y0103750D03*
X0459750Y0103750D03*
X0449750Y0103750D03*
X0439750Y0103750D03*
X0429750Y0103750D03*
X0033750Y0262750D03*
X0033750Y0466750D03*
X0063750Y0511750D03*
X0073750Y0511750D03*
X0083750Y0511750D03*
X0093750Y0511750D03*
X0103750Y0511750D03*
X0113750Y0511750D03*
X0113750Y0531750D03*
X0103750Y0531750D03*
X0093750Y0531750D03*
X0083750Y0531750D03*
X0073750Y0531750D03*
X0063750Y0531750D03*
X0053750Y0531750D03*
X0123750Y0531750D03*
X0367750Y0531750D03*
D15*
X0387250Y0512096D03*
X0387250Y0505404D03*
X0342750Y0505096D03*
X0342750Y0498404D03*
X0322750Y0498404D03*
X0322750Y0505096D03*
X0312750Y0505096D03*
X0312750Y0498404D03*
X0312750Y0490096D03*
X0312750Y0483404D03*
X0313750Y0470096D03*
X0313750Y0463404D03*
X0321250Y0463404D03*
X0321250Y0470096D03*
X0328750Y0470096D03*
X0328750Y0463404D03*
X0336250Y0463404D03*
X0336250Y0470096D03*
X0343750Y0470096D03*
X0343750Y0463404D03*
X0351250Y0463404D03*
X0351250Y0470096D03*
X0358750Y0470096D03*
X0358750Y0463404D03*
X0306250Y0463404D03*
X0306250Y0470096D03*
X0265250Y0505404D03*
X0265250Y0512096D03*
X0220750Y0505096D03*
X0220750Y0498404D03*
X0200750Y0498404D03*
X0200750Y0505096D03*
X0190750Y0505096D03*
X0190750Y0498404D03*
X0190750Y0490096D03*
X0190750Y0483404D03*
X0191750Y0470096D03*
X0191750Y0463404D03*
X0199250Y0463404D03*
X0199250Y0470096D03*
X0206750Y0470096D03*
X0206750Y0463404D03*
X0214250Y0463404D03*
X0214250Y0470096D03*
X0221750Y0470096D03*
X0221750Y0463404D03*
X0229250Y0463404D03*
X0229250Y0470096D03*
X0236750Y0470096D03*
X0236750Y0463404D03*
X0184250Y0463404D03*
X0184250Y0470096D03*
X0143250Y0505404D03*
X0143250Y0512096D03*
X0098750Y0505096D03*
X0098750Y0498404D03*
X0078750Y0498404D03*
X0078750Y0505096D03*
X0068750Y0505096D03*
X0068750Y0498404D03*
X0068750Y0490096D03*
X0068750Y0483404D03*
X0069750Y0470096D03*
X0069750Y0463404D03*
X0077250Y0463404D03*
X0077250Y0470096D03*
X0084750Y0470096D03*
X0084750Y0463404D03*
X0092250Y0463404D03*
X0092250Y0470096D03*
X0099750Y0470096D03*
X0099750Y0463404D03*
X0107250Y0463404D03*
X0107250Y0470096D03*
X0114750Y0470096D03*
X0114750Y0463404D03*
X0062250Y0463404D03*
X0062250Y0470096D03*
X0143250Y0410096D03*
X0143250Y0403404D03*
X0098750Y0403096D03*
X0098750Y0396404D03*
X0078750Y0396404D03*
X0078750Y0403096D03*
X0068750Y0403096D03*
X0068750Y0396404D03*
X0068750Y0388096D03*
X0068750Y0381404D03*
X0069750Y0368096D03*
X0069750Y0361404D03*
X0077250Y0361404D03*
X0077250Y0368096D03*
X0084750Y0368096D03*
X0084750Y0361404D03*
X0092250Y0361404D03*
X0092250Y0368096D03*
X0099750Y0368096D03*
X0099750Y0361404D03*
X0107250Y0361404D03*
X0107250Y0368096D03*
X0114750Y0368096D03*
X0114750Y0361404D03*
X0062250Y0361404D03*
X0062250Y0368096D03*
X0143250Y0308096D03*
X0143250Y0301404D03*
X0098750Y0301096D03*
X0098750Y0294404D03*
X0078750Y0294404D03*
X0078750Y0301096D03*
X0068750Y0301096D03*
X0068750Y0294404D03*
X0068750Y0286096D03*
X0068750Y0279404D03*
X0069750Y0266096D03*
X0077250Y0266096D03*
X0084750Y0266096D03*
X0092250Y0266096D03*
X0099750Y0266096D03*
X0107250Y0266096D03*
X0114750Y0266096D03*
X0114750Y0259404D03*
X0107250Y0259404D03*
X0099750Y0259404D03*
X0092250Y0259404D03*
X0084750Y0259404D03*
X0077250Y0259404D03*
X0069750Y0259404D03*
X0062250Y0259404D03*
X0062250Y0266096D03*
X0143250Y0206096D03*
X0143250Y0199404D03*
X0098750Y0199096D03*
X0098750Y0192404D03*
X0078750Y0192404D03*
X0078750Y0199096D03*
X0068750Y0199096D03*
X0068750Y0192404D03*
X0068750Y0184096D03*
X0068750Y0177404D03*
X0069750Y0164096D03*
X0069750Y0157404D03*
X0077250Y0157404D03*
X0077250Y0164096D03*
X0084750Y0164096D03*
X0084750Y0157404D03*
X0092250Y0157404D03*
X0092250Y0164096D03*
X0099750Y0164096D03*
X0099750Y0157404D03*
X0107250Y0157404D03*
X0107250Y0164096D03*
X0114750Y0164096D03*
X0114750Y0157404D03*
X0062250Y0157404D03*
X0062250Y0164096D03*
X0143250Y0104096D03*
X0143250Y0097404D03*
X0098750Y0097096D03*
X0078750Y0097096D03*
X0068750Y0097096D03*
X0068750Y0090404D03*
X0068750Y0082096D03*
X0068750Y0075404D03*
X0069750Y0062096D03*
X0069750Y0055404D03*
X0077250Y0055404D03*
X0077250Y0062096D03*
X0084750Y0062096D03*
X0084750Y0055404D03*
X0092250Y0055404D03*
X0092250Y0062096D03*
X0099750Y0062096D03*
X0099750Y0055404D03*
X0107250Y0055404D03*
X0107250Y0062096D03*
X0114750Y0062096D03*
X0114750Y0055404D03*
X0098750Y0090404D03*
X0078750Y0090404D03*
X0062250Y0062096D03*
X0062250Y0055404D03*
X0184250Y0055404D03*
X0184250Y0062096D03*
X0191750Y0062096D03*
X0191750Y0055404D03*
X0199250Y0055404D03*
X0199250Y0062096D03*
X0206750Y0062096D03*
X0206750Y0055404D03*
X0214250Y0055404D03*
X0214250Y0062096D03*
X0221750Y0062096D03*
X0221750Y0055404D03*
X0229250Y0055404D03*
X0229250Y0062096D03*
X0236750Y0062096D03*
X0236750Y0055404D03*
X0190750Y0075404D03*
X0190750Y0082096D03*
X0190750Y0090404D03*
X0200750Y0090404D03*
X0220750Y0090404D03*
X0220750Y0097096D03*
X0200750Y0097096D03*
X0190750Y0097096D03*
X0265250Y0097404D03*
X0265250Y0104096D03*
X0312750Y0097096D03*
X0322750Y0097096D03*
X0342750Y0097096D03*
X0342750Y0090404D03*
X0322750Y0090404D03*
X0312750Y0090404D03*
X0312750Y0082096D03*
X0312750Y0075404D03*
X0313750Y0062096D03*
X0313750Y0055404D03*
X0321250Y0055404D03*
X0321250Y0062096D03*
X0328750Y0062096D03*
X0328750Y0055404D03*
X0336250Y0055404D03*
X0336250Y0062096D03*
X0343750Y0062096D03*
X0343750Y0055404D03*
X0351250Y0055404D03*
X0351250Y0062096D03*
X0358750Y0062096D03*
X0358750Y0055404D03*
X0306250Y0055404D03*
X0306250Y0062096D03*
X0387250Y0097404D03*
X0387250Y0104096D03*
X0434750Y0097096D03*
X0444750Y0097096D03*
X0464750Y0097096D03*
X0464750Y0090404D03*
X0444750Y0090404D03*
X0434750Y0090404D03*
X0434750Y0082096D03*
X0434750Y0075404D03*
X0435750Y0062096D03*
X0435750Y0055404D03*
X0443250Y0055404D03*
X0443250Y0062096D03*
X0450750Y0062096D03*
X0450750Y0055404D03*
X0458250Y0055404D03*
X0458250Y0062096D03*
X0465750Y0062096D03*
X0465750Y0055404D03*
X0473250Y0055404D03*
X0473250Y0062096D03*
X0480750Y0062096D03*
X0480750Y0055404D03*
X0428250Y0055404D03*
X0428250Y0062096D03*
X0509250Y0097404D03*
X0509250Y0104096D03*
X0556750Y0097096D03*
X0566750Y0097096D03*
X0586750Y0097096D03*
X0586750Y0090404D03*
X0566750Y0090404D03*
X0556750Y0090404D03*
X0556750Y0082096D03*
X0556750Y0075404D03*
X0557750Y0062096D03*
X0557750Y0055404D03*
X0565250Y0055404D03*
X0565250Y0062096D03*
X0572750Y0062096D03*
X0572750Y0055404D03*
X0580250Y0055404D03*
X0580250Y0062096D03*
X0587750Y0062096D03*
X0587750Y0055404D03*
X0595250Y0055404D03*
X0595250Y0062096D03*
X0602750Y0062096D03*
X0602750Y0055404D03*
X0550250Y0055404D03*
X0550250Y0062096D03*
X0631250Y0097404D03*
X0631250Y0104096D03*
X0678750Y0097096D03*
X0688750Y0097096D03*
X0708750Y0097096D03*
X0708750Y0090404D03*
X0688750Y0090404D03*
X0678750Y0090404D03*
X0678750Y0082096D03*
X0678750Y0075404D03*
X0679750Y0062096D03*
X0679750Y0055404D03*
X0687250Y0055404D03*
X0687250Y0062096D03*
X0694750Y0062096D03*
X0694750Y0055404D03*
X0702250Y0055404D03*
X0702250Y0062096D03*
X0709750Y0062096D03*
X0709750Y0055404D03*
X0717250Y0055404D03*
X0717250Y0062096D03*
X0724750Y0062096D03*
X0724750Y0055404D03*
X0672250Y0055404D03*
X0672250Y0062096D03*
X0753250Y0097404D03*
X0753250Y0104096D03*
X0800750Y0097096D03*
X0810750Y0097096D03*
X0830750Y0097096D03*
X0830750Y0090404D03*
X0810750Y0090404D03*
X0800750Y0090404D03*
X0800750Y0082096D03*
X0800750Y0075404D03*
X0801750Y0062096D03*
X0801750Y0055404D03*
X0809250Y0055404D03*
X0809250Y0062096D03*
X0816750Y0062096D03*
X0816750Y0055404D03*
X0824250Y0055404D03*
X0824250Y0062096D03*
X0831750Y0062096D03*
X0831750Y0055404D03*
X0839250Y0055404D03*
X0839250Y0062096D03*
X0846750Y0062096D03*
X0846750Y0055404D03*
X0794250Y0055404D03*
X0794250Y0062096D03*
X0875250Y0097404D03*
X0875250Y0104096D03*
X0922750Y0097096D03*
X0932750Y0097096D03*
X0952750Y0097096D03*
X0952750Y0090404D03*
X0932750Y0090404D03*
X0922750Y0090404D03*
X0922750Y0082096D03*
X0922750Y0075404D03*
X0923750Y0062096D03*
X0923750Y0055404D03*
X0931250Y0055404D03*
X0931250Y0062096D03*
X0938750Y0062096D03*
X0938750Y0055404D03*
X0946250Y0055404D03*
X0946250Y0062096D03*
X0953750Y0062096D03*
X0953750Y0055404D03*
X0961250Y0055404D03*
X0961250Y0062096D03*
X0968750Y0062096D03*
X0968750Y0055404D03*
X0916250Y0055404D03*
X0916250Y0062096D03*
X0997250Y0097404D03*
X0997250Y0104096D03*
X0968750Y0157404D03*
X0968750Y0164096D03*
X0961250Y0164096D03*
X0961250Y0157404D03*
X0953750Y0157404D03*
X0953750Y0164096D03*
X0946250Y0164096D03*
X0946250Y0157404D03*
X0938750Y0157404D03*
X0938750Y0164096D03*
X0931250Y0164096D03*
X0931250Y0157404D03*
X0923750Y0157404D03*
X0923750Y0164096D03*
X0916250Y0164096D03*
X0916250Y0157404D03*
X0922750Y0177404D03*
X0922750Y0184096D03*
X0922750Y0192404D03*
X0922750Y0199096D03*
X0932750Y0199096D03*
X0932750Y0192404D03*
X0952750Y0192404D03*
X0952750Y0199096D03*
X0997250Y0199404D03*
X0997250Y0206096D03*
X0968750Y0259404D03*
X0961250Y0259404D03*
X0953750Y0259404D03*
X0946250Y0259404D03*
X0938750Y0259404D03*
X0931250Y0259404D03*
X0923750Y0259404D03*
X0916250Y0259404D03*
X0916250Y0266096D03*
X0923750Y0266096D03*
X0931250Y0266096D03*
X0938750Y0266096D03*
X0946250Y0266096D03*
X0953750Y0266096D03*
X0961250Y0266096D03*
X0968750Y0266096D03*
X0952750Y0294404D03*
X0952750Y0301096D03*
X0932750Y0301096D03*
X0932750Y0294404D03*
X0922750Y0294404D03*
X0922750Y0301096D03*
X0922750Y0286096D03*
X0922750Y0279404D03*
X0875250Y0301404D03*
X0875250Y0308096D03*
X0830750Y0301096D03*
X0830750Y0294404D03*
X0810750Y0294404D03*
X0810750Y0301096D03*
X0800750Y0301096D03*
X0800750Y0294404D03*
X0800750Y0286096D03*
X0800750Y0279404D03*
X0801750Y0266096D03*
X0809250Y0266096D03*
X0816750Y0266096D03*
X0824250Y0266096D03*
X0831750Y0266096D03*
X0839250Y0266096D03*
X0846750Y0266096D03*
X0846750Y0259404D03*
X0839250Y0259404D03*
X0831750Y0259404D03*
X0824250Y0259404D03*
X0816750Y0259404D03*
X0809250Y0259404D03*
X0801750Y0259404D03*
X0794250Y0259404D03*
X0794250Y0266096D03*
X0753250Y0301404D03*
X0753250Y0308096D03*
X0708750Y0301096D03*
X0708750Y0294404D03*
X0688750Y0294404D03*
X0688750Y0301096D03*
X0678750Y0301096D03*
X0678750Y0294404D03*
X0678750Y0286096D03*
X0678750Y0279404D03*
X0679750Y0266096D03*
X0687250Y0266096D03*
X0694750Y0266096D03*
X0702250Y0266096D03*
X0709750Y0266096D03*
X0717250Y0266096D03*
X0724750Y0266096D03*
X0724750Y0259404D03*
X0717250Y0259404D03*
X0709750Y0259404D03*
X0702250Y0259404D03*
X0694750Y0259404D03*
X0687250Y0259404D03*
X0679750Y0259404D03*
X0672250Y0259404D03*
X0672250Y0266096D03*
X0631250Y0301404D03*
X0631250Y0308096D03*
X0586750Y0301096D03*
X0586750Y0294404D03*
X0566750Y0294404D03*
X0566750Y0301096D03*
X0556750Y0301096D03*
X0556750Y0294404D03*
X0556750Y0286096D03*
X0556750Y0279404D03*
X0557750Y0266096D03*
X0565250Y0266096D03*
X0572750Y0266096D03*
X0580250Y0266096D03*
X0587750Y0266096D03*
X0595250Y0266096D03*
X0602750Y0266096D03*
X0602750Y0259404D03*
X0595250Y0259404D03*
X0587750Y0259404D03*
X0580250Y0259404D03*
X0572750Y0259404D03*
X0565250Y0259404D03*
X0557750Y0259404D03*
X0550250Y0259404D03*
X0550250Y0266096D03*
X0509250Y0301404D03*
X0509250Y0308096D03*
X0464750Y0301096D03*
X0464750Y0294404D03*
X0444750Y0294404D03*
X0444750Y0301096D03*
X0434750Y0301096D03*
X0434750Y0294404D03*
X0434750Y0286096D03*
X0434750Y0279404D03*
X0435750Y0266096D03*
X0443250Y0266096D03*
X0450750Y0266096D03*
X0458250Y0266096D03*
X0465750Y0266096D03*
X0473250Y0266096D03*
X0480750Y0266096D03*
X0480750Y0259404D03*
X0473250Y0259404D03*
X0465750Y0259404D03*
X0458250Y0259404D03*
X0450750Y0259404D03*
X0443250Y0259404D03*
X0435750Y0259404D03*
X0428250Y0259404D03*
X0428250Y0266096D03*
X0387250Y0301404D03*
X0387250Y0308096D03*
X0342750Y0301096D03*
X0342750Y0294404D03*
X0322750Y0294404D03*
X0322750Y0301096D03*
X0312750Y0301096D03*
X0312750Y0294404D03*
X0312750Y0286096D03*
X0312750Y0279404D03*
X0313750Y0266096D03*
X0321250Y0266096D03*
X0328750Y0266096D03*
X0336250Y0266096D03*
X0343750Y0266096D03*
X0351250Y0266096D03*
X0358750Y0266096D03*
X0358750Y0259404D03*
X0351250Y0259404D03*
X0343750Y0259404D03*
X0336250Y0259404D03*
X0328750Y0259404D03*
X0321250Y0259404D03*
X0313750Y0259404D03*
X0306250Y0259404D03*
X0306250Y0266096D03*
X0265250Y0301404D03*
X0265250Y0308096D03*
X0220750Y0301096D03*
X0220750Y0294404D03*
X0200750Y0294404D03*
X0200750Y0301096D03*
X0190750Y0301096D03*
X0190750Y0294404D03*
X0190750Y0286096D03*
X0190750Y0279404D03*
X0191750Y0266096D03*
X0199250Y0266096D03*
X0206750Y0266096D03*
X0214250Y0266096D03*
X0221750Y0266096D03*
X0229250Y0266096D03*
X0236750Y0266096D03*
X0236750Y0259404D03*
X0229250Y0259404D03*
X0221750Y0259404D03*
X0214250Y0259404D03*
X0206750Y0259404D03*
X0199250Y0259404D03*
X0191750Y0259404D03*
X0184250Y0259404D03*
X0184250Y0266096D03*
X0265250Y0206096D03*
X0265250Y0199404D03*
X0220750Y0199096D03*
X0220750Y0192404D03*
X0200750Y0192404D03*
X0200750Y0199096D03*
X0190750Y0199096D03*
X0190750Y0192404D03*
X0190750Y0184096D03*
X0190750Y0177404D03*
X0191750Y0164096D03*
X0191750Y0157404D03*
X0199250Y0157404D03*
X0199250Y0164096D03*
X0206750Y0164096D03*
X0206750Y0157404D03*
X0214250Y0157404D03*
X0214250Y0164096D03*
X0221750Y0164096D03*
X0221750Y0157404D03*
X0229250Y0157404D03*
X0229250Y0164096D03*
X0236750Y0164096D03*
X0236750Y0157404D03*
X0184250Y0157404D03*
X0184250Y0164096D03*
X0306250Y0164096D03*
X0306250Y0157404D03*
X0313750Y0157404D03*
X0313750Y0164096D03*
X0321250Y0164096D03*
X0321250Y0157404D03*
X0328750Y0157404D03*
X0328750Y0164096D03*
X0336250Y0164096D03*
X0336250Y0157404D03*
X0343750Y0157404D03*
X0343750Y0164096D03*
X0351250Y0164096D03*
X0351250Y0157404D03*
X0358750Y0157404D03*
X0358750Y0164096D03*
X0342750Y0192404D03*
X0342750Y0199096D03*
X0322750Y0199096D03*
X0322750Y0192404D03*
X0312750Y0192404D03*
X0312750Y0199096D03*
X0312750Y0184096D03*
X0312750Y0177404D03*
X0387250Y0199404D03*
X0387250Y0206096D03*
X0434750Y0199096D03*
X0434750Y0192404D03*
X0434750Y0184096D03*
X0434750Y0177404D03*
X0435750Y0164096D03*
X0435750Y0157404D03*
X0443250Y0157404D03*
X0443250Y0164096D03*
X0450750Y0164096D03*
X0450750Y0157404D03*
X0458250Y0157404D03*
X0458250Y0164096D03*
X0465750Y0164096D03*
X0465750Y0157404D03*
X0473250Y0157404D03*
X0473250Y0164096D03*
X0480750Y0164096D03*
X0480750Y0157404D03*
X0464750Y0192404D03*
X0464750Y0199096D03*
X0444750Y0199096D03*
X0444750Y0192404D03*
X0428250Y0164096D03*
X0428250Y0157404D03*
X0509250Y0199404D03*
X0509250Y0206096D03*
X0556750Y0199096D03*
X0556750Y0192404D03*
X0556750Y0184096D03*
X0556750Y0177404D03*
X0557750Y0164096D03*
X0557750Y0157404D03*
X0565250Y0157404D03*
X0565250Y0164096D03*
X0572750Y0164096D03*
X0572750Y0157404D03*
X0580250Y0157404D03*
X0580250Y0164096D03*
X0587750Y0164096D03*
X0587750Y0157404D03*
X0595250Y0157404D03*
X0595250Y0164096D03*
X0602750Y0164096D03*
X0602750Y0157404D03*
X0586750Y0192404D03*
X0586750Y0199096D03*
X0566750Y0199096D03*
X0566750Y0192404D03*
X0550250Y0164096D03*
X0550250Y0157404D03*
X0631250Y0199404D03*
X0631250Y0206096D03*
X0678750Y0199096D03*
X0678750Y0192404D03*
X0678750Y0184096D03*
X0678750Y0177404D03*
X0679750Y0164096D03*
X0679750Y0157404D03*
X0687250Y0157404D03*
X0687250Y0164096D03*
X0694750Y0164096D03*
X0694750Y0157404D03*
X0702250Y0157404D03*
X0702250Y0164096D03*
X0709750Y0164096D03*
X0709750Y0157404D03*
X0717250Y0157404D03*
X0717250Y0164096D03*
X0724750Y0164096D03*
X0724750Y0157404D03*
X0708750Y0192404D03*
X0708750Y0199096D03*
X0688750Y0199096D03*
X0688750Y0192404D03*
X0672250Y0164096D03*
X0672250Y0157404D03*
X0753250Y0199404D03*
X0753250Y0206096D03*
X0800750Y0199096D03*
X0800750Y0192404D03*
X0800750Y0184096D03*
X0800750Y0177404D03*
X0801750Y0164096D03*
X0801750Y0157404D03*
X0809250Y0157404D03*
X0809250Y0164096D03*
X0816750Y0164096D03*
X0816750Y0157404D03*
X0824250Y0157404D03*
X0824250Y0164096D03*
X0831750Y0164096D03*
X0831750Y0157404D03*
X0839250Y0157404D03*
X0839250Y0164096D03*
X0846750Y0164096D03*
X0846750Y0157404D03*
X0830750Y0192404D03*
X0830750Y0199096D03*
X0810750Y0199096D03*
X0810750Y0192404D03*
X0794250Y0164096D03*
X0794250Y0157404D03*
X0875250Y0199404D03*
X0875250Y0206096D03*
X0997250Y0301404D03*
X0997250Y0308096D03*
X0968750Y0361404D03*
X0968750Y0368096D03*
X0961250Y0368096D03*
X0961250Y0361404D03*
X0953750Y0361404D03*
X0953750Y0368096D03*
X0946250Y0368096D03*
X0946250Y0361404D03*
X0938750Y0361404D03*
X0938750Y0368096D03*
X0931250Y0368096D03*
X0931250Y0361404D03*
X0923750Y0361404D03*
X0923750Y0368096D03*
X0916250Y0368096D03*
X0916250Y0361404D03*
X0922750Y0381404D03*
X0922750Y0388096D03*
X0922750Y0396404D03*
X0922750Y0403096D03*
X0932750Y0403096D03*
X0932750Y0396404D03*
X0952750Y0396404D03*
X0952750Y0403096D03*
X0997250Y0403404D03*
X0997250Y0410096D03*
X0968750Y0463404D03*
X0968750Y0470096D03*
X0961250Y0470096D03*
X0961250Y0463404D03*
X0953750Y0463404D03*
X0953750Y0470096D03*
X0946250Y0470096D03*
X0946250Y0463404D03*
X0938750Y0463404D03*
X0938750Y0470096D03*
X0931250Y0470096D03*
X0931250Y0463404D03*
X0923750Y0463404D03*
X0923750Y0470096D03*
X0916250Y0470096D03*
X0916250Y0463404D03*
X0922750Y0483404D03*
X0922750Y0490096D03*
X0922750Y0498404D03*
X0922750Y0505096D03*
X0932750Y0505096D03*
X0932750Y0498404D03*
X0952750Y0498404D03*
X0952750Y0505096D03*
X0997250Y0505404D03*
X0997250Y0512096D03*
X0875250Y0512096D03*
X0875250Y0505404D03*
X0830750Y0505096D03*
X0830750Y0498404D03*
X0810750Y0498404D03*
X0810750Y0505096D03*
X0800750Y0505096D03*
X0800750Y0498404D03*
X0800750Y0490096D03*
X0800750Y0483404D03*
X0801750Y0470096D03*
X0801750Y0463404D03*
X0809250Y0463404D03*
X0809250Y0470096D03*
X0816750Y0470096D03*
X0816750Y0463404D03*
X0824250Y0463404D03*
X0824250Y0470096D03*
X0831750Y0470096D03*
X0831750Y0463404D03*
X0839250Y0463404D03*
X0839250Y0470096D03*
X0846750Y0470096D03*
X0846750Y0463404D03*
X0794250Y0463404D03*
X0794250Y0470096D03*
X0753250Y0505404D03*
X0753250Y0512096D03*
X0708750Y0505096D03*
X0708750Y0498404D03*
X0688750Y0498404D03*
X0688750Y0505096D03*
X0678750Y0505096D03*
X0678750Y0498404D03*
X0678750Y0490096D03*
X0678750Y0483404D03*
X0679750Y0470096D03*
X0679750Y0463404D03*
X0687250Y0463404D03*
X0687250Y0470096D03*
X0694750Y0470096D03*
X0694750Y0463404D03*
X0702250Y0463404D03*
X0702250Y0470096D03*
X0709750Y0470096D03*
X0709750Y0463404D03*
X0717250Y0463404D03*
X0717250Y0470096D03*
X0724750Y0470096D03*
X0724750Y0463404D03*
X0672250Y0463404D03*
X0672250Y0470096D03*
X0631250Y0505404D03*
X0631250Y0512096D03*
X0586750Y0505096D03*
X0586750Y0498404D03*
X0566750Y0498404D03*
X0566750Y0505096D03*
X0556750Y0505096D03*
X0556750Y0498404D03*
X0556750Y0490096D03*
X0556750Y0483404D03*
X0557750Y0470096D03*
X0557750Y0463404D03*
X0565250Y0463404D03*
X0565250Y0470096D03*
X0572750Y0470096D03*
X0572750Y0463404D03*
X0580250Y0463404D03*
X0580250Y0470096D03*
X0587750Y0470096D03*
X0587750Y0463404D03*
X0595250Y0463404D03*
X0595250Y0470096D03*
X0602750Y0470096D03*
X0602750Y0463404D03*
X0550250Y0463404D03*
X0550250Y0470096D03*
X0509250Y0505404D03*
X0509250Y0512096D03*
X0464750Y0505096D03*
X0464750Y0498404D03*
X0444750Y0498404D03*
X0444750Y0505096D03*
X0434750Y0505096D03*
X0434750Y0498404D03*
X0434750Y0490096D03*
X0434750Y0483404D03*
X0435750Y0470096D03*
X0435750Y0463404D03*
X0443250Y0463404D03*
X0443250Y0470096D03*
X0450750Y0470096D03*
X0450750Y0463404D03*
X0458250Y0463404D03*
X0458250Y0470096D03*
X0465750Y0470096D03*
X0465750Y0463404D03*
X0473250Y0463404D03*
X0473250Y0470096D03*
X0480750Y0470096D03*
X0480750Y0463404D03*
X0428250Y0463404D03*
X0428250Y0470096D03*
X0387250Y0410096D03*
X0387250Y0403404D03*
X0342750Y0403096D03*
X0342750Y0396404D03*
X0322750Y0396404D03*
X0322750Y0403096D03*
X0312750Y0403096D03*
X0312750Y0396404D03*
X0312750Y0388096D03*
X0312750Y0381404D03*
X0313750Y0368096D03*
X0313750Y0361404D03*
X0321250Y0361404D03*
X0321250Y0368096D03*
X0328750Y0368096D03*
X0328750Y0361404D03*
X0336250Y0361404D03*
X0336250Y0368096D03*
X0343750Y0368096D03*
X0343750Y0361404D03*
X0351250Y0361404D03*
X0351250Y0368096D03*
X0358750Y0368096D03*
X0358750Y0361404D03*
X0306250Y0361404D03*
X0306250Y0368096D03*
X0265250Y0403404D03*
X0265250Y0410096D03*
X0220750Y0403096D03*
X0220750Y0396404D03*
X0200750Y0396404D03*
X0200750Y0403096D03*
X0190750Y0403096D03*
X0190750Y0396404D03*
X0190750Y0388096D03*
X0190750Y0381404D03*
X0191750Y0368096D03*
X0191750Y0361404D03*
X0199250Y0361404D03*
X0199250Y0368096D03*
X0206750Y0368096D03*
X0206750Y0361404D03*
X0214250Y0361404D03*
X0214250Y0368096D03*
X0221750Y0368096D03*
X0221750Y0361404D03*
X0229250Y0361404D03*
X0229250Y0368096D03*
X0236750Y0368096D03*
X0236750Y0361404D03*
X0184250Y0361404D03*
X0184250Y0368096D03*
X0428250Y0368096D03*
X0428250Y0361404D03*
X0435750Y0361404D03*
X0435750Y0368096D03*
X0443250Y0368096D03*
X0443250Y0361404D03*
X0450750Y0361404D03*
X0450750Y0368096D03*
X0458250Y0368096D03*
X0458250Y0361404D03*
X0465750Y0361404D03*
X0465750Y0368096D03*
X0473250Y0368096D03*
X0473250Y0361404D03*
X0480750Y0361404D03*
X0480750Y0368096D03*
X0434750Y0381404D03*
X0434750Y0388096D03*
X0434750Y0396404D03*
X0434750Y0403096D03*
X0444750Y0403096D03*
X0444750Y0396404D03*
X0464750Y0396404D03*
X0464750Y0403096D03*
X0509250Y0403404D03*
X0509250Y0410096D03*
X0556750Y0403096D03*
X0556750Y0396404D03*
X0556750Y0388096D03*
X0556750Y0381404D03*
X0566750Y0396404D03*
X0566750Y0403096D03*
X0586750Y0403096D03*
X0586750Y0396404D03*
X0631250Y0403404D03*
X0631250Y0410096D03*
X0678750Y0403096D03*
X0678750Y0396404D03*
X0678750Y0388096D03*
X0678750Y0381404D03*
X0688750Y0396404D03*
X0688750Y0403096D03*
X0708750Y0403096D03*
X0708750Y0396404D03*
X0753250Y0403404D03*
X0753250Y0410096D03*
X0800750Y0403096D03*
X0800750Y0396404D03*
X0800750Y0388096D03*
X0800750Y0381404D03*
X0810750Y0396404D03*
X0810750Y0403096D03*
X0830750Y0403096D03*
X0830750Y0396404D03*
X0875250Y0403404D03*
X0875250Y0410096D03*
X0846750Y0368096D03*
X0846750Y0361404D03*
X0839250Y0361404D03*
X0839250Y0368096D03*
X0831750Y0368096D03*
X0831750Y0361404D03*
X0824250Y0361404D03*
X0824250Y0368096D03*
X0816750Y0368096D03*
X0816750Y0361404D03*
X0809250Y0361404D03*
X0809250Y0368096D03*
X0801750Y0368096D03*
X0801750Y0361404D03*
X0794250Y0361404D03*
X0794250Y0368096D03*
X0724750Y0368096D03*
X0724750Y0361404D03*
X0717250Y0361404D03*
X0717250Y0368096D03*
X0709750Y0368096D03*
X0709750Y0361404D03*
X0702250Y0361404D03*
X0702250Y0368096D03*
X0694750Y0368096D03*
X0694750Y0361404D03*
X0687250Y0361404D03*
X0687250Y0368096D03*
X0679750Y0368096D03*
X0679750Y0361404D03*
X0672250Y0361404D03*
X0672250Y0368096D03*
X0602750Y0368096D03*
X0602750Y0361404D03*
X0595250Y0361404D03*
X0595250Y0368096D03*
X0587750Y0368096D03*
X0587750Y0361404D03*
X0580250Y0361404D03*
X0580250Y0368096D03*
X0572750Y0368096D03*
X0572750Y0361404D03*
X0565250Y0361404D03*
X0565250Y0368096D03*
X0557750Y0368096D03*
X0557750Y0361404D03*
X0550250Y0361404D03*
X0550250Y0368096D03*
D16*
X0567892Y0378057D03*
X0569860Y0378057D03*
X0571829Y0378057D03*
X0573797Y0378057D03*
X0575766Y0378057D03*
X0577734Y0378057D03*
X0579703Y0378057D03*
X0581671Y0378057D03*
X0583640Y0378057D03*
X0585608Y0378057D03*
X0585608Y0391443D03*
X0583640Y0391443D03*
X0581671Y0391443D03*
X0579703Y0391443D03*
X0577734Y0391443D03*
X0575766Y0391443D03*
X0573797Y0391443D03*
X0571829Y0391443D03*
X0569860Y0391443D03*
X0567892Y0391443D03*
X0463608Y0391443D03*
X0461640Y0391443D03*
X0459671Y0391443D03*
X0457703Y0391443D03*
X0455734Y0391443D03*
X0453766Y0391443D03*
X0451797Y0391443D03*
X0449829Y0391443D03*
X0447860Y0391443D03*
X0445892Y0391443D03*
X0445892Y0378057D03*
X0447860Y0378057D03*
X0449829Y0378057D03*
X0451797Y0378057D03*
X0453766Y0378057D03*
X0455734Y0378057D03*
X0457703Y0378057D03*
X0459671Y0378057D03*
X0461640Y0378057D03*
X0463608Y0378057D03*
X0341608Y0378057D03*
X0339640Y0378057D03*
X0337671Y0378057D03*
X0335703Y0378057D03*
X0333734Y0378057D03*
X0331766Y0378057D03*
X0329797Y0378057D03*
X0327829Y0378057D03*
X0325860Y0378057D03*
X0323892Y0378057D03*
X0323892Y0391443D03*
X0325860Y0391443D03*
X0327829Y0391443D03*
X0329797Y0391443D03*
X0331766Y0391443D03*
X0333734Y0391443D03*
X0335703Y0391443D03*
X0337671Y0391443D03*
X0339640Y0391443D03*
X0341608Y0391443D03*
X0219608Y0391443D03*
X0217640Y0391443D03*
X0215671Y0391443D03*
X0213703Y0391443D03*
X0211734Y0391443D03*
X0209766Y0391443D03*
X0207797Y0391443D03*
X0205829Y0391443D03*
X0203860Y0391443D03*
X0201892Y0391443D03*
X0201892Y0378057D03*
X0203860Y0378057D03*
X0205829Y0378057D03*
X0207797Y0378057D03*
X0209766Y0378057D03*
X0211734Y0378057D03*
X0213703Y0378057D03*
X0215671Y0378057D03*
X0217640Y0378057D03*
X0219608Y0378057D03*
X0097608Y0378057D03*
X0095640Y0378057D03*
X0093671Y0378057D03*
X0091703Y0378057D03*
X0089734Y0378057D03*
X0087766Y0378057D03*
X0085797Y0378057D03*
X0083829Y0378057D03*
X0081860Y0378057D03*
X0079892Y0378057D03*
X0079892Y0391443D03*
X0081860Y0391443D03*
X0083829Y0391443D03*
X0085797Y0391443D03*
X0087766Y0391443D03*
X0089734Y0391443D03*
X0091703Y0391443D03*
X0093671Y0391443D03*
X0095640Y0391443D03*
X0097608Y0391443D03*
X0097608Y0480057D03*
X0095640Y0480057D03*
X0093671Y0480057D03*
X0091703Y0480057D03*
X0089734Y0480057D03*
X0087766Y0480057D03*
X0085797Y0480057D03*
X0083829Y0480057D03*
X0081860Y0480057D03*
X0079892Y0480057D03*
X0079892Y0493443D03*
X0081860Y0493443D03*
X0083829Y0493443D03*
X0085797Y0493443D03*
X0087766Y0493443D03*
X0089734Y0493443D03*
X0091703Y0493443D03*
X0093671Y0493443D03*
X0095640Y0493443D03*
X0097608Y0493443D03*
X0201892Y0493443D03*
X0203860Y0493443D03*
X0205829Y0493443D03*
X0207797Y0493443D03*
X0209766Y0493443D03*
X0211734Y0493443D03*
X0213703Y0493443D03*
X0215671Y0493443D03*
X0217640Y0493443D03*
X0219608Y0493443D03*
X0219608Y0480057D03*
X0217640Y0480057D03*
X0215671Y0480057D03*
X0213703Y0480057D03*
X0211734Y0480057D03*
X0209766Y0480057D03*
X0207797Y0480057D03*
X0205829Y0480057D03*
X0203860Y0480057D03*
X0201892Y0480057D03*
X0323892Y0480057D03*
X0325860Y0480057D03*
X0327829Y0480057D03*
X0329797Y0480057D03*
X0331766Y0480057D03*
X0333734Y0480057D03*
X0335703Y0480057D03*
X0337671Y0480057D03*
X0339640Y0480057D03*
X0341608Y0480057D03*
X0341608Y0493443D03*
X0339640Y0493443D03*
X0337671Y0493443D03*
X0335703Y0493443D03*
X0333734Y0493443D03*
X0331766Y0493443D03*
X0329797Y0493443D03*
X0327829Y0493443D03*
X0325860Y0493443D03*
X0323892Y0493443D03*
X0445892Y0493443D03*
X0447860Y0493443D03*
X0449829Y0493443D03*
X0451797Y0493443D03*
X0453766Y0493443D03*
X0455734Y0493443D03*
X0457703Y0493443D03*
X0459671Y0493443D03*
X0461640Y0493443D03*
X0463608Y0493443D03*
X0463608Y0480057D03*
X0461640Y0480057D03*
X0459671Y0480057D03*
X0457703Y0480057D03*
X0455734Y0480057D03*
X0453766Y0480057D03*
X0451797Y0480057D03*
X0449829Y0480057D03*
X0447860Y0480057D03*
X0445892Y0480057D03*
X0567892Y0480057D03*
X0569860Y0480057D03*
X0571829Y0480057D03*
X0573797Y0480057D03*
X0575766Y0480057D03*
X0577734Y0480057D03*
X0579703Y0480057D03*
X0581671Y0480057D03*
X0583640Y0480057D03*
X0585608Y0480057D03*
X0585608Y0493443D03*
X0583640Y0493443D03*
X0581671Y0493443D03*
X0579703Y0493443D03*
X0577734Y0493443D03*
X0575766Y0493443D03*
X0573797Y0493443D03*
X0571829Y0493443D03*
X0569860Y0493443D03*
X0567892Y0493443D03*
X0689892Y0493443D03*
X0691860Y0493443D03*
X0693829Y0493443D03*
X0695797Y0493443D03*
X0697766Y0493443D03*
X0699734Y0493443D03*
X0701703Y0493443D03*
X0703671Y0493443D03*
X0705640Y0493443D03*
X0707608Y0493443D03*
X0707608Y0480057D03*
X0705640Y0480057D03*
X0703671Y0480057D03*
X0701703Y0480057D03*
X0699734Y0480057D03*
X0697766Y0480057D03*
X0695797Y0480057D03*
X0693829Y0480057D03*
X0691860Y0480057D03*
X0689892Y0480057D03*
X0811892Y0480057D03*
X0813860Y0480057D03*
X0815829Y0480057D03*
X0817797Y0480057D03*
X0819766Y0480057D03*
X0821734Y0480057D03*
X0823703Y0480057D03*
X0825671Y0480057D03*
X0827640Y0480057D03*
X0829608Y0480057D03*
X0829608Y0493443D03*
X0827640Y0493443D03*
X0825671Y0493443D03*
X0823703Y0493443D03*
X0821734Y0493443D03*
X0819766Y0493443D03*
X0817797Y0493443D03*
X0815829Y0493443D03*
X0813860Y0493443D03*
X0811892Y0493443D03*
X0933892Y0493443D03*
X0935860Y0493443D03*
X0937829Y0493443D03*
X0939797Y0493443D03*
X0941766Y0493443D03*
X0943734Y0493443D03*
X0945703Y0493443D03*
X0947671Y0493443D03*
X0949640Y0493443D03*
X0951608Y0493443D03*
X0951608Y0480057D03*
X0949640Y0480057D03*
X0947671Y0480057D03*
X0945703Y0480057D03*
X0943734Y0480057D03*
X0941766Y0480057D03*
X0939797Y0480057D03*
X0937829Y0480057D03*
X0935860Y0480057D03*
X0933892Y0480057D03*
X0933892Y0391443D03*
X0935860Y0391443D03*
X0937829Y0391443D03*
X0939797Y0391443D03*
X0941766Y0391443D03*
X0943734Y0391443D03*
X0945703Y0391443D03*
X0947671Y0391443D03*
X0949640Y0391443D03*
X0951608Y0391443D03*
X0951608Y0378057D03*
X0949640Y0378057D03*
X0947671Y0378057D03*
X0945703Y0378057D03*
X0943734Y0378057D03*
X0941766Y0378057D03*
X0939797Y0378057D03*
X0937829Y0378057D03*
X0935860Y0378057D03*
X0933892Y0378057D03*
X0829608Y0378057D03*
X0827640Y0378057D03*
X0825671Y0378057D03*
X0823703Y0378057D03*
X0821734Y0378057D03*
X0819766Y0378057D03*
X0817797Y0378057D03*
X0815829Y0378057D03*
X0813860Y0378057D03*
X0811892Y0378057D03*
X0811892Y0391443D03*
X0813860Y0391443D03*
X0815829Y0391443D03*
X0817797Y0391443D03*
X0819766Y0391443D03*
X0821734Y0391443D03*
X0823703Y0391443D03*
X0825671Y0391443D03*
X0827640Y0391443D03*
X0829608Y0391443D03*
X0707608Y0391443D03*
X0705640Y0391443D03*
X0703671Y0391443D03*
X0701703Y0391443D03*
X0699734Y0391443D03*
X0697766Y0391443D03*
X0695797Y0391443D03*
X0693829Y0391443D03*
X0691860Y0391443D03*
X0689892Y0391443D03*
X0689892Y0378057D03*
X0691860Y0378057D03*
X0693829Y0378057D03*
X0695797Y0378057D03*
X0697766Y0378057D03*
X0699734Y0378057D03*
X0701703Y0378057D03*
X0703671Y0378057D03*
X0705640Y0378057D03*
X0707608Y0378057D03*
X0707608Y0289443D03*
X0705640Y0289443D03*
X0703671Y0289443D03*
X0701703Y0289443D03*
X0699734Y0289443D03*
X0697766Y0289443D03*
X0695797Y0289443D03*
X0693829Y0289443D03*
X0691860Y0289443D03*
X0689892Y0289443D03*
X0689892Y0276057D03*
X0691860Y0276057D03*
X0693829Y0276057D03*
X0695797Y0276057D03*
X0697766Y0276057D03*
X0699734Y0276057D03*
X0701703Y0276057D03*
X0703671Y0276057D03*
X0705640Y0276057D03*
X0707608Y0276057D03*
X0811892Y0276057D03*
X0813860Y0276057D03*
X0815829Y0276057D03*
X0817797Y0276057D03*
X0819766Y0276057D03*
X0821734Y0276057D03*
X0823703Y0276057D03*
X0825671Y0276057D03*
X0827640Y0276057D03*
X0829608Y0276057D03*
X0829608Y0289443D03*
X0827640Y0289443D03*
X0825671Y0289443D03*
X0823703Y0289443D03*
X0821734Y0289443D03*
X0819766Y0289443D03*
X0817797Y0289443D03*
X0815829Y0289443D03*
X0813860Y0289443D03*
X0811892Y0289443D03*
X0933892Y0289443D03*
X0935860Y0289443D03*
X0937829Y0289443D03*
X0939797Y0289443D03*
X0941766Y0289443D03*
X0943734Y0289443D03*
X0945703Y0289443D03*
X0947671Y0289443D03*
X0949640Y0289443D03*
X0951608Y0289443D03*
X0951608Y0276057D03*
X0949640Y0276057D03*
X0947671Y0276057D03*
X0945703Y0276057D03*
X0943734Y0276057D03*
X0941766Y0276057D03*
X0939797Y0276057D03*
X0937829Y0276057D03*
X0935860Y0276057D03*
X0933892Y0276057D03*
X0933892Y0187443D03*
X0935860Y0187443D03*
X0937829Y0187443D03*
X0939797Y0187443D03*
X0941766Y0187443D03*
X0943734Y0187443D03*
X0945703Y0187443D03*
X0947671Y0187443D03*
X0949640Y0187443D03*
X0951608Y0187443D03*
X0951608Y0174057D03*
X0949640Y0174057D03*
X0947671Y0174057D03*
X0945703Y0174057D03*
X0943734Y0174057D03*
X0941766Y0174057D03*
X0939797Y0174057D03*
X0937829Y0174057D03*
X0935860Y0174057D03*
X0933892Y0174057D03*
X0829608Y0174057D03*
X0827640Y0174057D03*
X0825671Y0174057D03*
X0823703Y0174057D03*
X0821734Y0174057D03*
X0819766Y0174057D03*
X0817797Y0174057D03*
X0815829Y0174057D03*
X0813860Y0174057D03*
X0811892Y0174057D03*
X0811892Y0187443D03*
X0813860Y0187443D03*
X0815829Y0187443D03*
X0817797Y0187443D03*
X0819766Y0187443D03*
X0821734Y0187443D03*
X0823703Y0187443D03*
X0825671Y0187443D03*
X0827640Y0187443D03*
X0829608Y0187443D03*
X0707608Y0187443D03*
X0705640Y0187443D03*
X0703671Y0187443D03*
X0701703Y0187443D03*
X0699734Y0187443D03*
X0697766Y0187443D03*
X0695797Y0187443D03*
X0693829Y0187443D03*
X0691860Y0187443D03*
X0689892Y0187443D03*
X0689892Y0174057D03*
X0691860Y0174057D03*
X0693829Y0174057D03*
X0695797Y0174057D03*
X0697766Y0174057D03*
X0699734Y0174057D03*
X0701703Y0174057D03*
X0703671Y0174057D03*
X0705640Y0174057D03*
X0707608Y0174057D03*
X0585608Y0174057D03*
X0583640Y0174057D03*
X0581671Y0174057D03*
X0579703Y0174057D03*
X0577734Y0174057D03*
X0575766Y0174057D03*
X0573797Y0174057D03*
X0571829Y0174057D03*
X0569860Y0174057D03*
X0567892Y0174057D03*
X0567892Y0187443D03*
X0569860Y0187443D03*
X0571829Y0187443D03*
X0573797Y0187443D03*
X0575766Y0187443D03*
X0577734Y0187443D03*
X0579703Y0187443D03*
X0581671Y0187443D03*
X0583640Y0187443D03*
X0585608Y0187443D03*
X0463608Y0187443D03*
X0461640Y0187443D03*
X0459671Y0187443D03*
X0457703Y0187443D03*
X0455734Y0187443D03*
X0453766Y0187443D03*
X0451797Y0187443D03*
X0449829Y0187443D03*
X0447860Y0187443D03*
X0445892Y0187443D03*
X0445892Y0174057D03*
X0447860Y0174057D03*
X0449829Y0174057D03*
X0451797Y0174057D03*
X0453766Y0174057D03*
X0455734Y0174057D03*
X0457703Y0174057D03*
X0459671Y0174057D03*
X0461640Y0174057D03*
X0463608Y0174057D03*
X0341608Y0174057D03*
X0339640Y0174057D03*
X0337671Y0174057D03*
X0335703Y0174057D03*
X0333734Y0174057D03*
X0331766Y0174057D03*
X0329797Y0174057D03*
X0327829Y0174057D03*
X0325860Y0174057D03*
X0323892Y0174057D03*
X0323892Y0187443D03*
X0325860Y0187443D03*
X0327829Y0187443D03*
X0329797Y0187443D03*
X0331766Y0187443D03*
X0333734Y0187443D03*
X0335703Y0187443D03*
X0337671Y0187443D03*
X0339640Y0187443D03*
X0341608Y0187443D03*
X0219608Y0187443D03*
X0217640Y0187443D03*
X0215671Y0187443D03*
X0213703Y0187443D03*
X0211734Y0187443D03*
X0209766Y0187443D03*
X0207797Y0187443D03*
X0205829Y0187443D03*
X0203860Y0187443D03*
X0201892Y0187443D03*
X0201892Y0174057D03*
X0203860Y0174057D03*
X0205829Y0174057D03*
X0207797Y0174057D03*
X0209766Y0174057D03*
X0211734Y0174057D03*
X0213703Y0174057D03*
X0215671Y0174057D03*
X0217640Y0174057D03*
X0219608Y0174057D03*
X0097608Y0174057D03*
X0095640Y0174057D03*
X0093671Y0174057D03*
X0091703Y0174057D03*
X0089734Y0174057D03*
X0087766Y0174057D03*
X0085797Y0174057D03*
X0083829Y0174057D03*
X0081860Y0174057D03*
X0079892Y0174057D03*
X0079892Y0187443D03*
X0081860Y0187443D03*
X0083829Y0187443D03*
X0085797Y0187443D03*
X0087766Y0187443D03*
X0089734Y0187443D03*
X0091703Y0187443D03*
X0093671Y0187443D03*
X0095640Y0187443D03*
X0097608Y0187443D03*
X0097608Y0276057D03*
X0095640Y0276057D03*
X0093671Y0276057D03*
X0091703Y0276057D03*
X0089734Y0276057D03*
X0087766Y0276057D03*
X0085797Y0276057D03*
X0083829Y0276057D03*
X0081860Y0276057D03*
X0079892Y0276057D03*
X0079892Y0289443D03*
X0081860Y0289443D03*
X0083829Y0289443D03*
X0085797Y0289443D03*
X0087766Y0289443D03*
X0089734Y0289443D03*
X0091703Y0289443D03*
X0093671Y0289443D03*
X0095640Y0289443D03*
X0097608Y0289443D03*
X0201892Y0289443D03*
X0203860Y0289443D03*
X0205829Y0289443D03*
X0207797Y0289443D03*
X0209766Y0289443D03*
X0211734Y0289443D03*
X0213703Y0289443D03*
X0215671Y0289443D03*
X0217640Y0289443D03*
X0219608Y0289443D03*
X0219608Y0276057D03*
X0217640Y0276057D03*
X0215671Y0276057D03*
X0213703Y0276057D03*
X0211734Y0276057D03*
X0209766Y0276057D03*
X0207797Y0276057D03*
X0205829Y0276057D03*
X0203860Y0276057D03*
X0201892Y0276057D03*
X0323892Y0276057D03*
X0325860Y0276057D03*
X0327829Y0276057D03*
X0329797Y0276057D03*
X0331766Y0276057D03*
X0333734Y0276057D03*
X0335703Y0276057D03*
X0337671Y0276057D03*
X0339640Y0276057D03*
X0341608Y0276057D03*
X0341608Y0289443D03*
X0339640Y0289443D03*
X0337671Y0289443D03*
X0335703Y0289443D03*
X0333734Y0289443D03*
X0331766Y0289443D03*
X0329797Y0289443D03*
X0327829Y0289443D03*
X0325860Y0289443D03*
X0323892Y0289443D03*
X0445892Y0289443D03*
X0447860Y0289443D03*
X0449829Y0289443D03*
X0451797Y0289443D03*
X0453766Y0289443D03*
X0455734Y0289443D03*
X0457703Y0289443D03*
X0459671Y0289443D03*
X0461640Y0289443D03*
X0463608Y0289443D03*
X0463608Y0276057D03*
X0461640Y0276057D03*
X0459671Y0276057D03*
X0457703Y0276057D03*
X0455734Y0276057D03*
X0453766Y0276057D03*
X0451797Y0276057D03*
X0449829Y0276057D03*
X0447860Y0276057D03*
X0445892Y0276057D03*
X0567892Y0276057D03*
X0569860Y0276057D03*
X0571829Y0276057D03*
X0573797Y0276057D03*
X0575766Y0276057D03*
X0577734Y0276057D03*
X0579703Y0276057D03*
X0581671Y0276057D03*
X0583640Y0276057D03*
X0585608Y0276057D03*
X0585608Y0289443D03*
X0583640Y0289443D03*
X0581671Y0289443D03*
X0579703Y0289443D03*
X0577734Y0289443D03*
X0575766Y0289443D03*
X0573797Y0289443D03*
X0571829Y0289443D03*
X0569860Y0289443D03*
X0567892Y0289443D03*
X0567892Y0085443D03*
X0569860Y0085443D03*
X0571829Y0085443D03*
X0573797Y0085443D03*
X0575766Y0085443D03*
X0577734Y0085443D03*
X0579703Y0085443D03*
X0581671Y0085443D03*
X0583640Y0085443D03*
X0585608Y0085443D03*
X0585608Y0072057D03*
X0583640Y0072057D03*
X0581671Y0072057D03*
X0579703Y0072057D03*
X0577734Y0072057D03*
X0575766Y0072057D03*
X0573797Y0072057D03*
X0571829Y0072057D03*
X0569860Y0072057D03*
X0567892Y0072057D03*
X0463608Y0072057D03*
X0461640Y0072057D03*
X0459671Y0072057D03*
X0457703Y0072057D03*
X0455734Y0072057D03*
X0453766Y0072057D03*
X0451797Y0072057D03*
X0449829Y0072057D03*
X0447860Y0072057D03*
X0445892Y0072057D03*
X0445892Y0085443D03*
X0447860Y0085443D03*
X0449829Y0085443D03*
X0451797Y0085443D03*
X0453766Y0085443D03*
X0455734Y0085443D03*
X0457703Y0085443D03*
X0459671Y0085443D03*
X0461640Y0085443D03*
X0463608Y0085443D03*
X0341608Y0085443D03*
X0339640Y0085443D03*
X0337671Y0085443D03*
X0335703Y0085443D03*
X0333734Y0085443D03*
X0331766Y0085443D03*
X0329797Y0085443D03*
X0327829Y0085443D03*
X0325860Y0085443D03*
X0323892Y0085443D03*
X0323892Y0072057D03*
X0325860Y0072057D03*
X0327829Y0072057D03*
X0329797Y0072057D03*
X0331766Y0072057D03*
X0333734Y0072057D03*
X0335703Y0072057D03*
X0337671Y0072057D03*
X0339640Y0072057D03*
X0341608Y0072057D03*
X0219608Y0072057D03*
X0217640Y0072057D03*
X0215671Y0072057D03*
X0213703Y0072057D03*
X0211734Y0072057D03*
X0209766Y0072057D03*
X0207797Y0072057D03*
X0205829Y0072057D03*
X0203860Y0072057D03*
X0201892Y0072057D03*
X0201892Y0085443D03*
X0203860Y0085443D03*
X0205829Y0085443D03*
X0207797Y0085443D03*
X0209766Y0085443D03*
X0211734Y0085443D03*
X0213703Y0085443D03*
X0215671Y0085443D03*
X0217640Y0085443D03*
X0219608Y0085443D03*
X0097608Y0085443D03*
X0095640Y0085443D03*
X0093671Y0085443D03*
X0091703Y0085443D03*
X0089734Y0085443D03*
X0087766Y0085443D03*
X0085797Y0085443D03*
X0083829Y0085443D03*
X0081860Y0085443D03*
X0079892Y0085443D03*
X0079892Y0072057D03*
X0081860Y0072057D03*
X0083829Y0072057D03*
X0085797Y0072057D03*
X0087766Y0072057D03*
X0089734Y0072057D03*
X0091703Y0072057D03*
X0093671Y0072057D03*
X0095640Y0072057D03*
X0097608Y0072057D03*
X0689892Y0072057D03*
X0691860Y0072057D03*
X0693829Y0072057D03*
X0695797Y0072057D03*
X0697766Y0072057D03*
X0699734Y0072057D03*
X0701703Y0072057D03*
X0703671Y0072057D03*
X0705640Y0072057D03*
X0707608Y0072057D03*
X0707608Y0085443D03*
X0705640Y0085443D03*
X0703671Y0085443D03*
X0701703Y0085443D03*
X0699734Y0085443D03*
X0697766Y0085443D03*
X0695797Y0085443D03*
X0693829Y0085443D03*
X0691860Y0085443D03*
X0689892Y0085443D03*
X0811892Y0085443D03*
X0813860Y0085443D03*
X0815829Y0085443D03*
X0817797Y0085443D03*
X0819766Y0085443D03*
X0821734Y0085443D03*
X0823703Y0085443D03*
X0825671Y0085443D03*
X0827640Y0085443D03*
X0829608Y0085443D03*
X0829608Y0072057D03*
X0827640Y0072057D03*
X0825671Y0072057D03*
X0823703Y0072057D03*
X0821734Y0072057D03*
X0819766Y0072057D03*
X0817797Y0072057D03*
X0815829Y0072057D03*
X0813860Y0072057D03*
X0811892Y0072057D03*
X0933892Y0072057D03*
X0935860Y0072057D03*
X0937829Y0072057D03*
X0939797Y0072057D03*
X0941766Y0072057D03*
X0943734Y0072057D03*
X0945703Y0072057D03*
X0947671Y0072057D03*
X0949640Y0072057D03*
X0951608Y0072057D03*
X0951608Y0085443D03*
X0949640Y0085443D03*
X0947671Y0085443D03*
X0945703Y0085443D03*
X0943734Y0085443D03*
X0941766Y0085443D03*
X0939797Y0085443D03*
X0937829Y0085443D03*
X0935860Y0085443D03*
X0933892Y0085443D03*
D17*
X0933301Y0081703D03*
X0933301Y0079734D03*
X0933301Y0077766D03*
X0933301Y0075797D03*
X0952199Y0075797D03*
X0952199Y0077766D03*
X0952199Y0079734D03*
X0952199Y0081703D03*
X0830199Y0081703D03*
X0830199Y0079734D03*
X0830199Y0077766D03*
X0830199Y0075797D03*
X0811301Y0075797D03*
X0811301Y0077766D03*
X0811301Y0079734D03*
X0811301Y0081703D03*
X0708199Y0081703D03*
X0708199Y0079734D03*
X0708199Y0077766D03*
X0708199Y0075797D03*
X0689301Y0075797D03*
X0689301Y0077766D03*
X0689301Y0079734D03*
X0689301Y0081703D03*
X0586199Y0081703D03*
X0586199Y0079734D03*
X0586199Y0077766D03*
X0586199Y0075797D03*
X0567301Y0075797D03*
X0567301Y0077766D03*
X0567301Y0079734D03*
X0567301Y0081703D03*
X0464199Y0081703D03*
X0464199Y0079734D03*
X0464199Y0077766D03*
X0464199Y0075797D03*
X0445301Y0075797D03*
X0445301Y0077766D03*
X0445301Y0079734D03*
X0445301Y0081703D03*
X0342199Y0081703D03*
X0342199Y0079734D03*
X0342199Y0077766D03*
X0342199Y0075797D03*
X0323301Y0075797D03*
X0323301Y0077766D03*
X0323301Y0079734D03*
X0323301Y0081703D03*
X0220199Y0081703D03*
X0220199Y0079734D03*
X0220199Y0077766D03*
X0220199Y0075797D03*
X0201301Y0075797D03*
X0201301Y0077766D03*
X0201301Y0079734D03*
X0201301Y0081703D03*
X0098199Y0081703D03*
X0098199Y0079734D03*
X0098199Y0077766D03*
X0098199Y0075797D03*
X0079301Y0075797D03*
X0079301Y0077766D03*
X0079301Y0079734D03*
X0079301Y0081703D03*
X0079301Y0177797D03*
X0079301Y0179766D03*
X0079301Y0181734D03*
X0079301Y0183703D03*
X0098199Y0183703D03*
X0098199Y0181734D03*
X0098199Y0179766D03*
X0098199Y0177797D03*
X0201301Y0177797D03*
X0201301Y0179766D03*
X0201301Y0181734D03*
X0201301Y0183703D03*
X0220199Y0183703D03*
X0220199Y0181734D03*
X0220199Y0179766D03*
X0220199Y0177797D03*
X0323301Y0177797D03*
X0323301Y0179766D03*
X0323301Y0181734D03*
X0323301Y0183703D03*
X0342199Y0183703D03*
X0342199Y0181734D03*
X0342199Y0179766D03*
X0342199Y0177797D03*
X0445301Y0177797D03*
X0445301Y0179766D03*
X0445301Y0181734D03*
X0445301Y0183703D03*
X0464199Y0183703D03*
X0464199Y0181734D03*
X0464199Y0179766D03*
X0464199Y0177797D03*
X0567301Y0177797D03*
X0567301Y0179766D03*
X0567301Y0181734D03*
X0567301Y0183703D03*
X0586199Y0183703D03*
X0586199Y0181734D03*
X0586199Y0179766D03*
X0586199Y0177797D03*
X0689301Y0177797D03*
X0689301Y0179766D03*
X0689301Y0181734D03*
X0689301Y0183703D03*
X0708199Y0183703D03*
X0708199Y0181734D03*
X0708199Y0179766D03*
X0708199Y0177797D03*
X0811301Y0177797D03*
X0811301Y0179766D03*
X0811301Y0181734D03*
X0811301Y0183703D03*
X0830199Y0183703D03*
X0830199Y0181734D03*
X0830199Y0179766D03*
X0830199Y0177797D03*
X0933301Y0177797D03*
X0933301Y0179766D03*
X0933301Y0181734D03*
X0933301Y0183703D03*
X0952199Y0183703D03*
X0952199Y0181734D03*
X0952199Y0179766D03*
X0952199Y0177797D03*
X0952199Y0279797D03*
X0952199Y0281766D03*
X0952199Y0283734D03*
X0952199Y0285703D03*
X0933301Y0285703D03*
X0933301Y0283734D03*
X0933301Y0281766D03*
X0933301Y0279797D03*
X0830199Y0279797D03*
X0830199Y0281766D03*
X0830199Y0283734D03*
X0830199Y0285703D03*
X0811301Y0285703D03*
X0811301Y0283734D03*
X0811301Y0281766D03*
X0811301Y0279797D03*
X0708199Y0279797D03*
X0708199Y0281766D03*
X0708199Y0283734D03*
X0708199Y0285703D03*
X0689301Y0285703D03*
X0689301Y0283734D03*
X0689301Y0281766D03*
X0689301Y0279797D03*
X0586199Y0279797D03*
X0586199Y0281766D03*
X0586199Y0283734D03*
X0586199Y0285703D03*
X0567301Y0285703D03*
X0567301Y0283734D03*
X0567301Y0281766D03*
X0567301Y0279797D03*
X0464199Y0279797D03*
X0464199Y0281766D03*
X0464199Y0283734D03*
X0464199Y0285703D03*
X0445301Y0285703D03*
X0445301Y0283734D03*
X0445301Y0281766D03*
X0445301Y0279797D03*
X0342199Y0279797D03*
X0342199Y0281766D03*
X0342199Y0283734D03*
X0342199Y0285703D03*
X0323301Y0285703D03*
X0323301Y0283734D03*
X0323301Y0281766D03*
X0323301Y0279797D03*
X0220199Y0279797D03*
X0220199Y0281766D03*
X0220199Y0283734D03*
X0220199Y0285703D03*
X0201301Y0285703D03*
X0201301Y0283734D03*
X0201301Y0281766D03*
X0201301Y0279797D03*
X0098199Y0279797D03*
X0098199Y0281766D03*
X0098199Y0283734D03*
X0098199Y0285703D03*
X0079301Y0285703D03*
X0079301Y0283734D03*
X0079301Y0281766D03*
X0079301Y0279797D03*
X0079301Y0381797D03*
X0079301Y0383766D03*
X0079301Y0385734D03*
X0079301Y0387703D03*
X0098199Y0387703D03*
X0098199Y0385734D03*
X0098199Y0383766D03*
X0098199Y0381797D03*
X0201301Y0381797D03*
X0201301Y0383766D03*
X0201301Y0385734D03*
X0201301Y0387703D03*
X0220199Y0387703D03*
X0220199Y0385734D03*
X0220199Y0383766D03*
X0220199Y0381797D03*
X0323301Y0381797D03*
X0323301Y0383766D03*
X0323301Y0385734D03*
X0323301Y0387703D03*
X0342199Y0387703D03*
X0342199Y0385734D03*
X0342199Y0383766D03*
X0342199Y0381797D03*
X0445301Y0381797D03*
X0445301Y0383766D03*
X0445301Y0385734D03*
X0445301Y0387703D03*
X0464199Y0387703D03*
X0464199Y0385734D03*
X0464199Y0383766D03*
X0464199Y0381797D03*
X0567301Y0381797D03*
X0567301Y0383766D03*
X0567301Y0385734D03*
X0567301Y0387703D03*
X0586199Y0387703D03*
X0586199Y0385734D03*
X0586199Y0383766D03*
X0586199Y0381797D03*
X0689301Y0381797D03*
X0689301Y0383766D03*
X0689301Y0385734D03*
X0689301Y0387703D03*
X0708199Y0387703D03*
X0708199Y0385734D03*
X0708199Y0383766D03*
X0708199Y0381797D03*
X0811301Y0381797D03*
X0811301Y0383766D03*
X0811301Y0385734D03*
X0811301Y0387703D03*
X0830199Y0387703D03*
X0830199Y0385734D03*
X0830199Y0383766D03*
X0830199Y0381797D03*
X0933301Y0381797D03*
X0933301Y0383766D03*
X0933301Y0385734D03*
X0933301Y0387703D03*
X0952199Y0387703D03*
X0952199Y0385734D03*
X0952199Y0383766D03*
X0952199Y0381797D03*
X0952199Y0483797D03*
X0952199Y0485766D03*
X0952199Y0487734D03*
X0952199Y0489703D03*
X0933301Y0489703D03*
X0933301Y0487734D03*
X0933301Y0485766D03*
X0933301Y0483797D03*
X0830199Y0483797D03*
X0830199Y0485766D03*
X0830199Y0487734D03*
X0830199Y0489703D03*
X0811301Y0489703D03*
X0811301Y0487734D03*
X0811301Y0485766D03*
X0811301Y0483797D03*
X0708199Y0483797D03*
X0708199Y0485766D03*
X0708199Y0487734D03*
X0708199Y0489703D03*
X0689301Y0489703D03*
X0689301Y0487734D03*
X0689301Y0485766D03*
X0689301Y0483797D03*
X0586199Y0483797D03*
X0586199Y0485766D03*
X0586199Y0487734D03*
X0586199Y0489703D03*
X0567301Y0489703D03*
X0567301Y0487734D03*
X0567301Y0485766D03*
X0567301Y0483797D03*
X0464199Y0483797D03*
X0464199Y0485766D03*
X0464199Y0487734D03*
X0464199Y0489703D03*
X0445301Y0489703D03*
X0445301Y0487734D03*
X0445301Y0485766D03*
X0445301Y0483797D03*
X0342199Y0483797D03*
X0342199Y0485766D03*
X0342199Y0487734D03*
X0342199Y0489703D03*
X0323301Y0489703D03*
X0323301Y0487734D03*
X0323301Y0485766D03*
X0323301Y0483797D03*
X0220199Y0483797D03*
X0220199Y0485766D03*
X0220199Y0487734D03*
X0220199Y0489703D03*
X0201301Y0489703D03*
X0201301Y0487734D03*
X0201301Y0485766D03*
X0201301Y0483797D03*
X0098199Y0483797D03*
X0098199Y0485766D03*
X0098199Y0487734D03*
X0098199Y0489703D03*
X0079301Y0489703D03*
X0079301Y0487734D03*
X0079301Y0485766D03*
X0079301Y0483797D03*
D18*
X0130404Y0466750D03*
X0137096Y0466750D03*
X0137096Y0446750D03*
X0130404Y0446750D03*
X0252404Y0446750D03*
X0259096Y0446750D03*
X0259096Y0466750D03*
X0252404Y0466750D03*
X0374404Y0466750D03*
X0381096Y0466750D03*
X0381096Y0446750D03*
X0374404Y0446750D03*
X0496404Y0446750D03*
X0503096Y0446750D03*
X0503096Y0466750D03*
X0496404Y0466750D03*
X0618404Y0466750D03*
X0625096Y0466750D03*
X0625096Y0446750D03*
X0618404Y0446750D03*
X0740404Y0446750D03*
X0747096Y0446750D03*
X0747096Y0466750D03*
X0740404Y0466750D03*
X0862404Y0466750D03*
X0869096Y0466750D03*
X0869096Y0446750D03*
X0862404Y0446750D03*
X0984404Y0446750D03*
X0991096Y0446750D03*
X0991096Y0466750D03*
X0984404Y0466750D03*
X0984404Y0364750D03*
X0991096Y0364750D03*
X0991096Y0344750D03*
X0984404Y0344750D03*
X0869096Y0344750D03*
X0862404Y0344750D03*
X0862404Y0364750D03*
X0869096Y0364750D03*
X0747096Y0364750D03*
X0740404Y0364750D03*
X0740404Y0344750D03*
X0747096Y0344750D03*
X0625096Y0344750D03*
X0618404Y0344750D03*
X0618404Y0364750D03*
X0625096Y0364750D03*
X0503096Y0364750D03*
X0496404Y0364750D03*
X0496404Y0344750D03*
X0503096Y0344750D03*
X0381096Y0344750D03*
X0374404Y0344750D03*
X0374404Y0364750D03*
X0381096Y0364750D03*
X0259096Y0364750D03*
X0252404Y0364750D03*
X0252404Y0344750D03*
X0259096Y0344750D03*
X0137096Y0344750D03*
X0130404Y0344750D03*
X0130404Y0364750D03*
X0137096Y0364750D03*
X0137096Y0262750D03*
X0130404Y0262750D03*
X0130404Y0242750D03*
X0137096Y0242750D03*
X0252404Y0242750D03*
X0259096Y0242750D03*
X0259096Y0262750D03*
X0252404Y0262750D03*
X0374404Y0262750D03*
X0381096Y0262750D03*
X0381096Y0242750D03*
X0374404Y0242750D03*
X0496404Y0242750D03*
X0503096Y0242750D03*
X0503096Y0262750D03*
X0496404Y0262750D03*
X0618404Y0262750D03*
X0625096Y0262750D03*
X0625096Y0242750D03*
X0618404Y0242750D03*
X0740404Y0242750D03*
X0747096Y0242750D03*
X0747096Y0262750D03*
X0740404Y0262750D03*
X0862404Y0262750D03*
X0869096Y0262750D03*
X0869096Y0242750D03*
X0862404Y0242750D03*
X0984404Y0242750D03*
X0991096Y0242750D03*
X0991096Y0262750D03*
X0984404Y0262750D03*
X0984404Y0160750D03*
X0991096Y0160750D03*
X0991096Y0140750D03*
X0984404Y0140750D03*
X0869096Y0140750D03*
X0862404Y0140750D03*
X0862404Y0160750D03*
X0869096Y0160750D03*
X0747096Y0160750D03*
X0740404Y0160750D03*
X0740404Y0140750D03*
X0747096Y0140750D03*
X0625096Y0140750D03*
X0618404Y0140750D03*
X0618404Y0160750D03*
X0625096Y0160750D03*
X0503096Y0160750D03*
X0496404Y0160750D03*
X0496404Y0140750D03*
X0503096Y0140750D03*
X0381096Y0140750D03*
X0374404Y0140750D03*
X0374404Y0160750D03*
X0381096Y0160750D03*
X0259096Y0160750D03*
X0252404Y0160750D03*
X0252404Y0140750D03*
X0259096Y0140750D03*
X0137096Y0140750D03*
X0130404Y0140750D03*
X0130404Y0160750D03*
X0137096Y0160750D03*
X0137096Y0058750D03*
X0130404Y0058750D03*
X0130404Y0038750D03*
X0137096Y0038750D03*
X0252404Y0038750D03*
X0259096Y0038750D03*
X0259096Y0058750D03*
X0252404Y0058750D03*
X0374404Y0058750D03*
X0381096Y0058750D03*
X0381096Y0038750D03*
X0374404Y0038750D03*
X0496404Y0038750D03*
X0503096Y0038750D03*
X0503096Y0058750D03*
X0496404Y0058750D03*
X0618404Y0058750D03*
X0625096Y0058750D03*
X0625096Y0038750D03*
X0618404Y0038750D03*
X0740404Y0038750D03*
X0747096Y0038750D03*
X0747096Y0058750D03*
X0740404Y0058750D03*
X0862404Y0058750D03*
X0869096Y0058750D03*
X0869096Y0038750D03*
X0862404Y0038750D03*
X0984404Y0038750D03*
X0991096Y0038750D03*
X0991096Y0058750D03*
X0984404Y0058750D03*
D19*
X0987750Y0051950D03*
X0987750Y0048750D03*
X0987750Y0045550D03*
X0865750Y0045550D03*
X0865750Y0048750D03*
X0865750Y0051950D03*
X0743750Y0051950D03*
X0743750Y0048750D03*
X0743750Y0045550D03*
X0621750Y0045550D03*
X0621750Y0048750D03*
X0621750Y0051950D03*
X0499750Y0051950D03*
X0499750Y0048750D03*
X0499750Y0045550D03*
X0377750Y0045550D03*
X0377750Y0048750D03*
X0377750Y0051950D03*
X0255750Y0051950D03*
X0255750Y0048750D03*
X0255750Y0045550D03*
X0133750Y0045550D03*
X0133750Y0048750D03*
X0133750Y0051950D03*
X0133750Y0147550D03*
X0133750Y0150750D03*
X0133750Y0153950D03*
X0255750Y0153950D03*
X0255750Y0150750D03*
X0255750Y0147550D03*
X0377750Y0147550D03*
X0377750Y0150750D03*
X0377750Y0153950D03*
X0499750Y0153950D03*
X0499750Y0150750D03*
X0499750Y0147550D03*
X0621750Y0147550D03*
X0621750Y0150750D03*
X0621750Y0153950D03*
X0743750Y0153950D03*
X0743750Y0150750D03*
X0743750Y0147550D03*
X0865750Y0147550D03*
X0865750Y0150750D03*
X0865750Y0153950D03*
X0987750Y0153950D03*
X0987750Y0150750D03*
X0987750Y0147550D03*
X0987750Y0249550D03*
X0987750Y0252750D03*
X0987750Y0255950D03*
X0865750Y0255950D03*
X0865750Y0252750D03*
X0865750Y0249550D03*
X0743750Y0249550D03*
X0743750Y0252750D03*
X0743750Y0255950D03*
X0621750Y0255950D03*
X0621750Y0252750D03*
X0621750Y0249550D03*
X0499750Y0249550D03*
X0499750Y0252750D03*
X0499750Y0255950D03*
X0377750Y0255950D03*
X0377750Y0252750D03*
X0377750Y0249550D03*
X0255750Y0249550D03*
X0255750Y0252750D03*
X0255750Y0255950D03*
X0133750Y0255950D03*
X0133750Y0252750D03*
X0133750Y0249550D03*
X0133750Y0351550D03*
X0133750Y0354750D03*
X0133750Y0357950D03*
X0255750Y0357950D03*
X0255750Y0354750D03*
X0255750Y0351550D03*
X0377750Y0351550D03*
X0377750Y0354750D03*
X0377750Y0357950D03*
X0499750Y0357950D03*
X0499750Y0354750D03*
X0499750Y0351550D03*
X0621750Y0351550D03*
X0621750Y0354750D03*
X0621750Y0357950D03*
X0743750Y0357950D03*
X0743750Y0354750D03*
X0743750Y0351550D03*
X0865750Y0351550D03*
X0865750Y0354750D03*
X0865750Y0357950D03*
X0987750Y0357950D03*
X0987750Y0354750D03*
X0987750Y0351550D03*
X0987750Y0453550D03*
X0987750Y0456750D03*
X0987750Y0459950D03*
X0865750Y0459950D03*
X0865750Y0456750D03*
X0865750Y0453550D03*
X0743750Y0453550D03*
X0743750Y0456750D03*
X0743750Y0459950D03*
X0621750Y0459950D03*
X0621750Y0456750D03*
X0621750Y0453550D03*
X0499750Y0453550D03*
X0499750Y0456750D03*
X0499750Y0459950D03*
X0377750Y0459950D03*
X0377750Y0456750D03*
X0377750Y0453550D03*
X0255750Y0453550D03*
X0255750Y0456750D03*
X0255750Y0459950D03*
X0133750Y0459950D03*
X0133750Y0456750D03*
X0133750Y0453550D03*
D20*
X0093671Y0501750D03*
X0083829Y0501750D03*
X0205829Y0501750D03*
X0215671Y0501750D03*
X0327829Y0501750D03*
X0337671Y0501750D03*
X0449829Y0501750D03*
X0459671Y0501750D03*
X0571829Y0501750D03*
X0581671Y0501750D03*
X0693829Y0501750D03*
X0703671Y0501750D03*
X0815829Y0501750D03*
X0825671Y0501750D03*
X0937829Y0501750D03*
X0947671Y0501750D03*
X0947671Y0399750D03*
X0937829Y0399750D03*
X0825671Y0399750D03*
X0815829Y0399750D03*
X0703671Y0399750D03*
X0693829Y0399750D03*
X0581671Y0399750D03*
X0571829Y0399750D03*
X0459671Y0399750D03*
X0449829Y0399750D03*
X0337671Y0399750D03*
X0327829Y0399750D03*
X0215671Y0399750D03*
X0205829Y0399750D03*
X0093671Y0399750D03*
X0083829Y0399750D03*
X0083829Y0297750D03*
X0093671Y0297750D03*
X0205829Y0297750D03*
X0215671Y0297750D03*
X0327829Y0297750D03*
X0337671Y0297750D03*
X0449829Y0297750D03*
X0459671Y0297750D03*
X0571829Y0297750D03*
X0581671Y0297750D03*
X0693829Y0297750D03*
X0703671Y0297750D03*
X0815829Y0297750D03*
X0825671Y0297750D03*
X0937829Y0297750D03*
X0947671Y0297750D03*
X0947671Y0195750D03*
X0937829Y0195750D03*
X0825671Y0195750D03*
X0815829Y0195750D03*
X0703671Y0195750D03*
X0693829Y0195750D03*
X0581671Y0195750D03*
X0571829Y0195750D03*
X0459671Y0195750D03*
X0449829Y0195750D03*
X0337671Y0195750D03*
X0327829Y0195750D03*
X0215671Y0195750D03*
X0205829Y0195750D03*
X0093671Y0195750D03*
X0083829Y0195750D03*
X0083829Y0093750D03*
X0093671Y0093750D03*
X0205829Y0093750D03*
X0215671Y0093750D03*
X0327829Y0093750D03*
X0337671Y0093750D03*
X0449829Y0093750D03*
X0459671Y0093750D03*
X0571829Y0093750D03*
X0581671Y0093750D03*
X0693829Y0093750D03*
X0703671Y0093750D03*
X0815829Y0093750D03*
X0825671Y0093750D03*
X0937829Y0093750D03*
X0947671Y0093750D03*
D21*
X0989592Y0098955D02*
X0992908Y0098955D01*
X0992908Y0095639D01*
X0989592Y0095639D01*
X0989592Y0098955D01*
X0989592Y0097059D02*
X0992908Y0097059D01*
X0992908Y0098479D02*
X0989592Y0098479D01*
X0989592Y0105861D02*
X0992908Y0105861D01*
X0992908Y0102545D01*
X0989592Y0102545D01*
X0989592Y0105861D01*
X0989592Y0103965D02*
X0992908Y0103965D01*
X0992908Y0105385D02*
X0989592Y0105385D01*
X0870908Y0105861D02*
X0867592Y0105861D01*
X0870908Y0105861D02*
X0870908Y0102545D01*
X0867592Y0102545D01*
X0867592Y0105861D01*
X0867592Y0103965D02*
X0870908Y0103965D01*
X0870908Y0105385D02*
X0867592Y0105385D01*
X0867592Y0098955D02*
X0870908Y0098955D01*
X0870908Y0095639D01*
X0867592Y0095639D01*
X0867592Y0098955D01*
X0867592Y0097059D02*
X0870908Y0097059D01*
X0870908Y0098479D02*
X0867592Y0098479D01*
X0748908Y0098955D02*
X0745592Y0098955D01*
X0748908Y0098955D02*
X0748908Y0095639D01*
X0745592Y0095639D01*
X0745592Y0098955D01*
X0745592Y0097059D02*
X0748908Y0097059D01*
X0748908Y0098479D02*
X0745592Y0098479D01*
X0745592Y0105861D02*
X0748908Y0105861D01*
X0748908Y0102545D01*
X0745592Y0102545D01*
X0745592Y0105861D01*
X0745592Y0103965D02*
X0748908Y0103965D01*
X0748908Y0105385D02*
X0745592Y0105385D01*
X0626908Y0105861D02*
X0623592Y0105861D01*
X0626908Y0105861D02*
X0626908Y0102545D01*
X0623592Y0102545D01*
X0623592Y0105861D01*
X0623592Y0103965D02*
X0626908Y0103965D01*
X0626908Y0105385D02*
X0623592Y0105385D01*
X0623592Y0098955D02*
X0626908Y0098955D01*
X0626908Y0095639D01*
X0623592Y0095639D01*
X0623592Y0098955D01*
X0623592Y0097059D02*
X0626908Y0097059D01*
X0626908Y0098479D02*
X0623592Y0098479D01*
X0504908Y0098955D02*
X0501592Y0098955D01*
X0504908Y0098955D02*
X0504908Y0095639D01*
X0501592Y0095639D01*
X0501592Y0098955D01*
X0501592Y0097059D02*
X0504908Y0097059D01*
X0504908Y0098479D02*
X0501592Y0098479D01*
X0501592Y0105861D02*
X0504908Y0105861D01*
X0504908Y0102545D01*
X0501592Y0102545D01*
X0501592Y0105861D01*
X0501592Y0103965D02*
X0504908Y0103965D01*
X0504908Y0105385D02*
X0501592Y0105385D01*
X0382908Y0105861D02*
X0379592Y0105861D01*
X0382908Y0105861D02*
X0382908Y0102545D01*
X0379592Y0102545D01*
X0379592Y0105861D01*
X0379592Y0103965D02*
X0382908Y0103965D01*
X0382908Y0105385D02*
X0379592Y0105385D01*
X0379592Y0098955D02*
X0382908Y0098955D01*
X0382908Y0095639D01*
X0379592Y0095639D01*
X0379592Y0098955D01*
X0379592Y0097059D02*
X0382908Y0097059D01*
X0382908Y0098479D02*
X0379592Y0098479D01*
X0260908Y0098955D02*
X0257592Y0098955D01*
X0260908Y0098955D02*
X0260908Y0095639D01*
X0257592Y0095639D01*
X0257592Y0098955D01*
X0257592Y0097059D02*
X0260908Y0097059D01*
X0260908Y0098479D02*
X0257592Y0098479D01*
X0257592Y0105861D02*
X0260908Y0105861D01*
X0260908Y0102545D01*
X0257592Y0102545D01*
X0257592Y0105861D01*
X0257592Y0103965D02*
X0260908Y0103965D01*
X0260908Y0105385D02*
X0257592Y0105385D01*
X0138908Y0105861D02*
X0135592Y0105861D01*
X0138908Y0105861D02*
X0138908Y0102545D01*
X0135592Y0102545D01*
X0135592Y0105861D01*
X0135592Y0103965D02*
X0138908Y0103965D01*
X0138908Y0105385D02*
X0135592Y0105385D01*
X0135592Y0098955D02*
X0138908Y0098955D01*
X0138908Y0095639D01*
X0135592Y0095639D01*
X0135592Y0098955D01*
X0135592Y0097059D02*
X0138908Y0097059D01*
X0138908Y0098479D02*
X0135592Y0098479D01*
X0135592Y0200955D02*
X0138908Y0200955D01*
X0138908Y0197639D01*
X0135592Y0197639D01*
X0135592Y0200955D01*
X0135592Y0199059D02*
X0138908Y0199059D01*
X0138908Y0200479D02*
X0135592Y0200479D01*
X0135592Y0207861D02*
X0138908Y0207861D01*
X0138908Y0204545D01*
X0135592Y0204545D01*
X0135592Y0207861D01*
X0135592Y0205965D02*
X0138908Y0205965D01*
X0138908Y0207385D02*
X0135592Y0207385D01*
X0257592Y0207861D02*
X0260908Y0207861D01*
X0260908Y0204545D01*
X0257592Y0204545D01*
X0257592Y0207861D01*
X0257592Y0205965D02*
X0260908Y0205965D01*
X0260908Y0207385D02*
X0257592Y0207385D01*
X0257592Y0200955D02*
X0260908Y0200955D01*
X0260908Y0197639D01*
X0257592Y0197639D01*
X0257592Y0200955D01*
X0257592Y0199059D02*
X0260908Y0199059D01*
X0260908Y0200479D02*
X0257592Y0200479D01*
X0379592Y0200955D02*
X0382908Y0200955D01*
X0382908Y0197639D01*
X0379592Y0197639D01*
X0379592Y0200955D01*
X0379592Y0199059D02*
X0382908Y0199059D01*
X0382908Y0200479D02*
X0379592Y0200479D01*
X0379592Y0207861D02*
X0382908Y0207861D01*
X0382908Y0204545D01*
X0379592Y0204545D01*
X0379592Y0207861D01*
X0379592Y0205965D02*
X0382908Y0205965D01*
X0382908Y0207385D02*
X0379592Y0207385D01*
X0501592Y0207861D02*
X0504908Y0207861D01*
X0504908Y0204545D01*
X0501592Y0204545D01*
X0501592Y0207861D01*
X0501592Y0205965D02*
X0504908Y0205965D01*
X0504908Y0207385D02*
X0501592Y0207385D01*
X0501592Y0200955D02*
X0504908Y0200955D01*
X0504908Y0197639D01*
X0501592Y0197639D01*
X0501592Y0200955D01*
X0501592Y0199059D02*
X0504908Y0199059D01*
X0504908Y0200479D02*
X0501592Y0200479D01*
X0623592Y0200955D02*
X0626908Y0200955D01*
X0626908Y0197639D01*
X0623592Y0197639D01*
X0623592Y0200955D01*
X0623592Y0199059D02*
X0626908Y0199059D01*
X0626908Y0200479D02*
X0623592Y0200479D01*
X0623592Y0207861D02*
X0626908Y0207861D01*
X0626908Y0204545D01*
X0623592Y0204545D01*
X0623592Y0207861D01*
X0623592Y0205965D02*
X0626908Y0205965D01*
X0626908Y0207385D02*
X0623592Y0207385D01*
X0745592Y0207861D02*
X0748908Y0207861D01*
X0748908Y0204545D01*
X0745592Y0204545D01*
X0745592Y0207861D01*
X0745592Y0205965D02*
X0748908Y0205965D01*
X0748908Y0207385D02*
X0745592Y0207385D01*
X0745592Y0200955D02*
X0748908Y0200955D01*
X0748908Y0197639D01*
X0745592Y0197639D01*
X0745592Y0200955D01*
X0745592Y0199059D02*
X0748908Y0199059D01*
X0748908Y0200479D02*
X0745592Y0200479D01*
X0867592Y0200955D02*
X0870908Y0200955D01*
X0870908Y0197639D01*
X0867592Y0197639D01*
X0867592Y0200955D01*
X0867592Y0199059D02*
X0870908Y0199059D01*
X0870908Y0200479D02*
X0867592Y0200479D01*
X0867592Y0207861D02*
X0870908Y0207861D01*
X0870908Y0204545D01*
X0867592Y0204545D01*
X0867592Y0207861D01*
X0867592Y0205965D02*
X0870908Y0205965D01*
X0870908Y0207385D02*
X0867592Y0207385D01*
X0989592Y0207861D02*
X0992908Y0207861D01*
X0992908Y0204545D01*
X0989592Y0204545D01*
X0989592Y0207861D01*
X0989592Y0205965D02*
X0992908Y0205965D01*
X0992908Y0207385D02*
X0989592Y0207385D01*
X0989592Y0200955D02*
X0992908Y0200955D01*
X0992908Y0197639D01*
X0989592Y0197639D01*
X0989592Y0200955D01*
X0989592Y0199059D02*
X0992908Y0199059D01*
X0992908Y0200479D02*
X0989592Y0200479D01*
X0989592Y0302955D02*
X0992908Y0302955D01*
X0992908Y0299639D01*
X0989592Y0299639D01*
X0989592Y0302955D01*
X0989592Y0301059D02*
X0992908Y0301059D01*
X0992908Y0302479D02*
X0989592Y0302479D01*
X0989592Y0309861D02*
X0992908Y0309861D01*
X0992908Y0306545D01*
X0989592Y0306545D01*
X0989592Y0309861D01*
X0989592Y0307965D02*
X0992908Y0307965D01*
X0992908Y0309385D02*
X0989592Y0309385D01*
X0870908Y0309861D02*
X0867592Y0309861D01*
X0870908Y0309861D02*
X0870908Y0306545D01*
X0867592Y0306545D01*
X0867592Y0309861D01*
X0867592Y0307965D02*
X0870908Y0307965D01*
X0870908Y0309385D02*
X0867592Y0309385D01*
X0867592Y0302955D02*
X0870908Y0302955D01*
X0870908Y0299639D01*
X0867592Y0299639D01*
X0867592Y0302955D01*
X0867592Y0301059D02*
X0870908Y0301059D01*
X0870908Y0302479D02*
X0867592Y0302479D01*
X0748908Y0302955D02*
X0745592Y0302955D01*
X0748908Y0302955D02*
X0748908Y0299639D01*
X0745592Y0299639D01*
X0745592Y0302955D01*
X0745592Y0301059D02*
X0748908Y0301059D01*
X0748908Y0302479D02*
X0745592Y0302479D01*
X0745592Y0309861D02*
X0748908Y0309861D01*
X0748908Y0306545D01*
X0745592Y0306545D01*
X0745592Y0309861D01*
X0745592Y0307965D02*
X0748908Y0307965D01*
X0748908Y0309385D02*
X0745592Y0309385D01*
X0626908Y0309861D02*
X0623592Y0309861D01*
X0626908Y0309861D02*
X0626908Y0306545D01*
X0623592Y0306545D01*
X0623592Y0309861D01*
X0623592Y0307965D02*
X0626908Y0307965D01*
X0626908Y0309385D02*
X0623592Y0309385D01*
X0623592Y0302955D02*
X0626908Y0302955D01*
X0626908Y0299639D01*
X0623592Y0299639D01*
X0623592Y0302955D01*
X0623592Y0301059D02*
X0626908Y0301059D01*
X0626908Y0302479D02*
X0623592Y0302479D01*
X0504908Y0302955D02*
X0501592Y0302955D01*
X0504908Y0302955D02*
X0504908Y0299639D01*
X0501592Y0299639D01*
X0501592Y0302955D01*
X0501592Y0301059D02*
X0504908Y0301059D01*
X0504908Y0302479D02*
X0501592Y0302479D01*
X0501592Y0309861D02*
X0504908Y0309861D01*
X0504908Y0306545D01*
X0501592Y0306545D01*
X0501592Y0309861D01*
X0501592Y0307965D02*
X0504908Y0307965D01*
X0504908Y0309385D02*
X0501592Y0309385D01*
X0382908Y0309861D02*
X0379592Y0309861D01*
X0382908Y0309861D02*
X0382908Y0306545D01*
X0379592Y0306545D01*
X0379592Y0309861D01*
X0379592Y0307965D02*
X0382908Y0307965D01*
X0382908Y0309385D02*
X0379592Y0309385D01*
X0379592Y0302955D02*
X0382908Y0302955D01*
X0382908Y0299639D01*
X0379592Y0299639D01*
X0379592Y0302955D01*
X0379592Y0301059D02*
X0382908Y0301059D01*
X0382908Y0302479D02*
X0379592Y0302479D01*
X0260908Y0302955D02*
X0257592Y0302955D01*
X0260908Y0302955D02*
X0260908Y0299639D01*
X0257592Y0299639D01*
X0257592Y0302955D01*
X0257592Y0301059D02*
X0260908Y0301059D01*
X0260908Y0302479D02*
X0257592Y0302479D01*
X0257592Y0309861D02*
X0260908Y0309861D01*
X0260908Y0306545D01*
X0257592Y0306545D01*
X0257592Y0309861D01*
X0257592Y0307965D02*
X0260908Y0307965D01*
X0260908Y0309385D02*
X0257592Y0309385D01*
X0138908Y0309861D02*
X0135592Y0309861D01*
X0138908Y0309861D02*
X0138908Y0306545D01*
X0135592Y0306545D01*
X0135592Y0309861D01*
X0135592Y0307965D02*
X0138908Y0307965D01*
X0138908Y0309385D02*
X0135592Y0309385D01*
X0135592Y0302955D02*
X0138908Y0302955D01*
X0138908Y0299639D01*
X0135592Y0299639D01*
X0135592Y0302955D01*
X0135592Y0301059D02*
X0138908Y0301059D01*
X0138908Y0302479D02*
X0135592Y0302479D01*
X0135592Y0404955D02*
X0138908Y0404955D01*
X0138908Y0401639D01*
X0135592Y0401639D01*
X0135592Y0404955D01*
X0135592Y0403059D02*
X0138908Y0403059D01*
X0138908Y0404479D02*
X0135592Y0404479D01*
X0135592Y0411861D02*
X0138908Y0411861D01*
X0138908Y0408545D01*
X0135592Y0408545D01*
X0135592Y0411861D01*
X0135592Y0409965D02*
X0138908Y0409965D01*
X0138908Y0411385D02*
X0135592Y0411385D01*
X0257592Y0411861D02*
X0260908Y0411861D01*
X0260908Y0408545D01*
X0257592Y0408545D01*
X0257592Y0411861D01*
X0257592Y0409965D02*
X0260908Y0409965D01*
X0260908Y0411385D02*
X0257592Y0411385D01*
X0257592Y0404955D02*
X0260908Y0404955D01*
X0260908Y0401639D01*
X0257592Y0401639D01*
X0257592Y0404955D01*
X0257592Y0403059D02*
X0260908Y0403059D01*
X0260908Y0404479D02*
X0257592Y0404479D01*
X0379592Y0404955D02*
X0382908Y0404955D01*
X0382908Y0401639D01*
X0379592Y0401639D01*
X0379592Y0404955D01*
X0379592Y0403059D02*
X0382908Y0403059D01*
X0382908Y0404479D02*
X0379592Y0404479D01*
X0379592Y0411861D02*
X0382908Y0411861D01*
X0382908Y0408545D01*
X0379592Y0408545D01*
X0379592Y0411861D01*
X0379592Y0409965D02*
X0382908Y0409965D01*
X0382908Y0411385D02*
X0379592Y0411385D01*
X0501592Y0411861D02*
X0504908Y0411861D01*
X0504908Y0408545D01*
X0501592Y0408545D01*
X0501592Y0411861D01*
X0501592Y0409965D02*
X0504908Y0409965D01*
X0504908Y0411385D02*
X0501592Y0411385D01*
X0501592Y0404955D02*
X0504908Y0404955D01*
X0504908Y0401639D01*
X0501592Y0401639D01*
X0501592Y0404955D01*
X0501592Y0403059D02*
X0504908Y0403059D01*
X0504908Y0404479D02*
X0501592Y0404479D01*
X0623592Y0404955D02*
X0626908Y0404955D01*
X0626908Y0401639D01*
X0623592Y0401639D01*
X0623592Y0404955D01*
X0623592Y0403059D02*
X0626908Y0403059D01*
X0626908Y0404479D02*
X0623592Y0404479D01*
X0623592Y0411861D02*
X0626908Y0411861D01*
X0626908Y0408545D01*
X0623592Y0408545D01*
X0623592Y0411861D01*
X0623592Y0409965D02*
X0626908Y0409965D01*
X0626908Y0411385D02*
X0623592Y0411385D01*
X0745592Y0411861D02*
X0748908Y0411861D01*
X0748908Y0408545D01*
X0745592Y0408545D01*
X0745592Y0411861D01*
X0745592Y0409965D02*
X0748908Y0409965D01*
X0748908Y0411385D02*
X0745592Y0411385D01*
X0745592Y0404955D02*
X0748908Y0404955D01*
X0748908Y0401639D01*
X0745592Y0401639D01*
X0745592Y0404955D01*
X0745592Y0403059D02*
X0748908Y0403059D01*
X0748908Y0404479D02*
X0745592Y0404479D01*
X0867592Y0404955D02*
X0870908Y0404955D01*
X0870908Y0401639D01*
X0867592Y0401639D01*
X0867592Y0404955D01*
X0867592Y0403059D02*
X0870908Y0403059D01*
X0870908Y0404479D02*
X0867592Y0404479D01*
X0867592Y0411861D02*
X0870908Y0411861D01*
X0870908Y0408545D01*
X0867592Y0408545D01*
X0867592Y0411861D01*
X0867592Y0409965D02*
X0870908Y0409965D01*
X0870908Y0411385D02*
X0867592Y0411385D01*
X0989592Y0411861D02*
X0992908Y0411861D01*
X0992908Y0408545D01*
X0989592Y0408545D01*
X0989592Y0411861D01*
X0989592Y0409965D02*
X0992908Y0409965D01*
X0992908Y0411385D02*
X0989592Y0411385D01*
X0989592Y0404955D02*
X0992908Y0404955D01*
X0992908Y0401639D01*
X0989592Y0401639D01*
X0989592Y0404955D01*
X0989592Y0403059D02*
X0992908Y0403059D01*
X0992908Y0404479D02*
X0989592Y0404479D01*
X0989592Y0506955D02*
X0992908Y0506955D01*
X0992908Y0503639D01*
X0989592Y0503639D01*
X0989592Y0506955D01*
X0989592Y0505059D02*
X0992908Y0505059D01*
X0992908Y0506479D02*
X0989592Y0506479D01*
X0989592Y0513861D02*
X0992908Y0513861D01*
X0992908Y0510545D01*
X0989592Y0510545D01*
X0989592Y0513861D01*
X0989592Y0511965D02*
X0992908Y0511965D01*
X0992908Y0513385D02*
X0989592Y0513385D01*
X0870908Y0513861D02*
X0867592Y0513861D01*
X0870908Y0513861D02*
X0870908Y0510545D01*
X0867592Y0510545D01*
X0867592Y0513861D01*
X0867592Y0511965D02*
X0870908Y0511965D01*
X0870908Y0513385D02*
X0867592Y0513385D01*
X0867592Y0506955D02*
X0870908Y0506955D01*
X0870908Y0503639D01*
X0867592Y0503639D01*
X0867592Y0506955D01*
X0867592Y0505059D02*
X0870908Y0505059D01*
X0870908Y0506479D02*
X0867592Y0506479D01*
X0748908Y0506955D02*
X0745592Y0506955D01*
X0748908Y0506955D02*
X0748908Y0503639D01*
X0745592Y0503639D01*
X0745592Y0506955D01*
X0745592Y0505059D02*
X0748908Y0505059D01*
X0748908Y0506479D02*
X0745592Y0506479D01*
X0745592Y0513861D02*
X0748908Y0513861D01*
X0748908Y0510545D01*
X0745592Y0510545D01*
X0745592Y0513861D01*
X0745592Y0511965D02*
X0748908Y0511965D01*
X0748908Y0513385D02*
X0745592Y0513385D01*
X0626908Y0513861D02*
X0623592Y0513861D01*
X0626908Y0513861D02*
X0626908Y0510545D01*
X0623592Y0510545D01*
X0623592Y0513861D01*
X0623592Y0511965D02*
X0626908Y0511965D01*
X0626908Y0513385D02*
X0623592Y0513385D01*
X0623592Y0506955D02*
X0626908Y0506955D01*
X0626908Y0503639D01*
X0623592Y0503639D01*
X0623592Y0506955D01*
X0623592Y0505059D02*
X0626908Y0505059D01*
X0626908Y0506479D02*
X0623592Y0506479D01*
X0504908Y0506955D02*
X0501592Y0506955D01*
X0504908Y0506955D02*
X0504908Y0503639D01*
X0501592Y0503639D01*
X0501592Y0506955D01*
X0501592Y0505059D02*
X0504908Y0505059D01*
X0504908Y0506479D02*
X0501592Y0506479D01*
X0501592Y0513861D02*
X0504908Y0513861D01*
X0504908Y0510545D01*
X0501592Y0510545D01*
X0501592Y0513861D01*
X0501592Y0511965D02*
X0504908Y0511965D01*
X0504908Y0513385D02*
X0501592Y0513385D01*
X0382908Y0513861D02*
X0379592Y0513861D01*
X0382908Y0513861D02*
X0382908Y0510545D01*
X0379592Y0510545D01*
X0379592Y0513861D01*
X0379592Y0511965D02*
X0382908Y0511965D01*
X0382908Y0513385D02*
X0379592Y0513385D01*
X0379592Y0506955D02*
X0382908Y0506955D01*
X0382908Y0503639D01*
X0379592Y0503639D01*
X0379592Y0506955D01*
X0379592Y0505059D02*
X0382908Y0505059D01*
X0382908Y0506479D02*
X0379592Y0506479D01*
X0260908Y0506955D02*
X0257592Y0506955D01*
X0260908Y0506955D02*
X0260908Y0503639D01*
X0257592Y0503639D01*
X0257592Y0506955D01*
X0257592Y0505059D02*
X0260908Y0505059D01*
X0260908Y0506479D02*
X0257592Y0506479D01*
X0257592Y0513861D02*
X0260908Y0513861D01*
X0260908Y0510545D01*
X0257592Y0510545D01*
X0257592Y0513861D01*
X0257592Y0511965D02*
X0260908Y0511965D01*
X0260908Y0513385D02*
X0257592Y0513385D01*
X0138908Y0513861D02*
X0135592Y0513861D01*
X0138908Y0513861D02*
X0138908Y0510545D01*
X0135592Y0510545D01*
X0135592Y0513861D01*
X0135592Y0511965D02*
X0138908Y0511965D01*
X0138908Y0513385D02*
X0135592Y0513385D01*
X0135592Y0506955D02*
X0138908Y0506955D01*
X0138908Y0503639D01*
X0135592Y0503639D01*
X0135592Y0506955D01*
X0135592Y0505059D02*
X0138908Y0505059D01*
X0138908Y0506479D02*
X0135592Y0506479D01*
D22*
X0055750Y0545000D03*
X0975750Y0545000D03*
D23*
X0052185Y0020500D02*
X0052187Y0020619D01*
X0052193Y0020738D01*
X0052203Y0020857D01*
X0052217Y0020975D01*
X0052235Y0021093D01*
X0052256Y0021210D01*
X0052282Y0021326D01*
X0052312Y0021442D01*
X0052345Y0021556D01*
X0052382Y0021669D01*
X0052423Y0021781D01*
X0052468Y0021892D01*
X0052516Y0022001D01*
X0052568Y0022108D01*
X0052624Y0022213D01*
X0052683Y0022317D01*
X0052745Y0022418D01*
X0052811Y0022518D01*
X0052880Y0022615D01*
X0052952Y0022709D01*
X0053028Y0022802D01*
X0053106Y0022891D01*
X0053187Y0022978D01*
X0053272Y0023063D01*
X0053359Y0023144D01*
X0053448Y0023222D01*
X0053541Y0023298D01*
X0053635Y0023370D01*
X0053732Y0023439D01*
X0053832Y0023505D01*
X0053933Y0023567D01*
X0054037Y0023626D01*
X0054142Y0023682D01*
X0054249Y0023734D01*
X0054358Y0023782D01*
X0054469Y0023827D01*
X0054581Y0023868D01*
X0054694Y0023905D01*
X0054808Y0023938D01*
X0054924Y0023968D01*
X0055040Y0023994D01*
X0055157Y0024015D01*
X0055275Y0024033D01*
X0055393Y0024047D01*
X0055512Y0024057D01*
X0055631Y0024063D01*
X0055750Y0024065D01*
X0055869Y0024063D01*
X0055988Y0024057D01*
X0056107Y0024047D01*
X0056225Y0024033D01*
X0056343Y0024015D01*
X0056460Y0023994D01*
X0056576Y0023968D01*
X0056692Y0023938D01*
X0056806Y0023905D01*
X0056919Y0023868D01*
X0057031Y0023827D01*
X0057142Y0023782D01*
X0057251Y0023734D01*
X0057358Y0023682D01*
X0057463Y0023626D01*
X0057567Y0023567D01*
X0057668Y0023505D01*
X0057768Y0023439D01*
X0057865Y0023370D01*
X0057959Y0023298D01*
X0058052Y0023222D01*
X0058141Y0023144D01*
X0058228Y0023063D01*
X0058313Y0022978D01*
X0058394Y0022891D01*
X0058472Y0022802D01*
X0058548Y0022709D01*
X0058620Y0022615D01*
X0058689Y0022518D01*
X0058755Y0022418D01*
X0058817Y0022317D01*
X0058876Y0022213D01*
X0058932Y0022108D01*
X0058984Y0022001D01*
X0059032Y0021892D01*
X0059077Y0021781D01*
X0059118Y0021669D01*
X0059155Y0021556D01*
X0059188Y0021442D01*
X0059218Y0021326D01*
X0059244Y0021210D01*
X0059265Y0021093D01*
X0059283Y0020975D01*
X0059297Y0020857D01*
X0059307Y0020738D01*
X0059313Y0020619D01*
X0059315Y0020500D01*
X0059313Y0020381D01*
X0059307Y0020262D01*
X0059297Y0020143D01*
X0059283Y0020025D01*
X0059265Y0019907D01*
X0059244Y0019790D01*
X0059218Y0019674D01*
X0059188Y0019558D01*
X0059155Y0019444D01*
X0059118Y0019331D01*
X0059077Y0019219D01*
X0059032Y0019108D01*
X0058984Y0018999D01*
X0058932Y0018892D01*
X0058876Y0018787D01*
X0058817Y0018683D01*
X0058755Y0018582D01*
X0058689Y0018482D01*
X0058620Y0018385D01*
X0058548Y0018291D01*
X0058472Y0018198D01*
X0058394Y0018109D01*
X0058313Y0018022D01*
X0058228Y0017937D01*
X0058141Y0017856D01*
X0058052Y0017778D01*
X0057959Y0017702D01*
X0057865Y0017630D01*
X0057768Y0017561D01*
X0057668Y0017495D01*
X0057567Y0017433D01*
X0057463Y0017374D01*
X0057358Y0017318D01*
X0057251Y0017266D01*
X0057142Y0017218D01*
X0057031Y0017173D01*
X0056919Y0017132D01*
X0056806Y0017095D01*
X0056692Y0017062D01*
X0056576Y0017032D01*
X0056460Y0017006D01*
X0056343Y0016985D01*
X0056225Y0016967D01*
X0056107Y0016953D01*
X0055988Y0016943D01*
X0055869Y0016937D01*
X0055750Y0016935D01*
X0055631Y0016937D01*
X0055512Y0016943D01*
X0055393Y0016953D01*
X0055275Y0016967D01*
X0055157Y0016985D01*
X0055040Y0017006D01*
X0054924Y0017032D01*
X0054808Y0017062D01*
X0054694Y0017095D01*
X0054581Y0017132D01*
X0054469Y0017173D01*
X0054358Y0017218D01*
X0054249Y0017266D01*
X0054142Y0017318D01*
X0054037Y0017374D01*
X0053933Y0017433D01*
X0053832Y0017495D01*
X0053732Y0017561D01*
X0053635Y0017630D01*
X0053541Y0017702D01*
X0053448Y0017778D01*
X0053359Y0017856D01*
X0053272Y0017937D01*
X0053187Y0018022D01*
X0053106Y0018109D01*
X0053028Y0018198D01*
X0052952Y0018291D01*
X0052880Y0018385D01*
X0052811Y0018482D01*
X0052745Y0018582D01*
X0052683Y0018683D01*
X0052624Y0018787D01*
X0052568Y0018892D01*
X0052516Y0018999D01*
X0052468Y0019108D01*
X0052423Y0019219D01*
X0052382Y0019331D01*
X0052345Y0019444D01*
X0052312Y0019558D01*
X0052282Y0019674D01*
X0052256Y0019790D01*
X0052235Y0019907D01*
X0052217Y0020025D01*
X0052203Y0020143D01*
X0052193Y0020262D01*
X0052187Y0020381D01*
X0052185Y0020500D01*
D24*
X0055750Y0020500D03*
M02*
